<?xml version="1.0" standalone="no"?>
<!DOCTYPE svg PUBLIC "-//W3C//DTD SVG 20010904//EN"
 "http://www.w3.org/TR/2001/REC-SVG-20010904/DTD/svg10.dtd">
<svg version="1.0" xmlns="http://www.w3.org/2000/svg"
 width="20.000000pt" height="20.000000pt" viewBox="0 0 300.000000 260.000000"
 preserveAspectRatio="xMidYMid meet">
<metadata>
Created by potrace 1.10, written by Peter Selinger 2001-2011
</metadata>
<g transform="translate(0.000000,260.000000) scale(0.100000,-0.100000)"
fill="#000000" stroke="none">
<path d="M1413 2531 c-43 -38 -159 -144 -258 -235 l-180 -165 -126 -1 c-138 0
-163 -8 -157 -51 3 -22 8 -24 66 -27 l62 -3 0 -79 c0 -68 3 -81 19 -90 25 -13
27 -13 45 6 12 11 16 36 16 90 l0 74 85 0 85 0 0 -197 0 -198 -169 3 c-184 4
-211 -2 -211 -43 0 -32 30 -47 83 -43 l42 3 5 -60 c4 -53 8 -60 28 -63 37 -6
52 15 52 72 l0 51 85 0 85 0 -1 -205 0 -205 -122 -525 -122 -525 -232 -3
c-213 -2 -233 -4 -242 -21 -7 -13 -6 -24 5 -39 l15 -22 1129 0 1129 0 15 22
c11 15 12 26 5 39 -9 17 -29 19 -242 21 l-232 3 -122 525 -122 525 0 205 -1
205 85 0 85 0 0 -51 c0 -57 15 -78 52 -72 20 3 24 10 28 63 l5 60 42 -3 c53
-4 83 11 83 43 0 41 -27 47 -211 43 l-169 -3 0 198 0 197 85 0 85 0 0 -54 c0
-59 14 -80 52 -74 21 3 23 9 26 65 l3 62 62 3 c57 3 62 5 65 27 6 43 -19 51
-157 51 l-126 1 -180 165 c-252 232 -334 304 -345 304 -5 0 -45 -31 -87 -69z
m291 -216 c108 -98 196 -182 196 -185 0 -3 -180 -5 -400 -5 -220 0 -399 3
-397 7 4 12 391 367 398 365 4 -1 95 -83 203 -182z m-634 -178 c0 -17 29 -44
53 -48 22 -5 24 -21 4 -33 -10 -7 -23 -3 -42 12 -15 12 -41 22 -56 22 -36 0
-36 8 -1 37 31 26 42 28 42 10z m903 -12 c34 -30 34 -35 -2 -35 -17 0 -42 -11
-59 -25 -22 -18 -32 -21 -40 -13 -17 17 -15 38 5 38 20 0 53 28 53 47 0 19 11
16 43 -12z m-1095 -43 c10 -7 8 -13 -7 -26 -19 -17 -20 -17 -30 2 -8 15 -8 22
2 25 18 8 21 8 35 -1z m1285 2 c3 -4 2 -15 -4 -26 -10 -19 -11 -19 -30 -2 -15
13 -17 19 -7 26 16 9 32 10 41 2z m-318 -232 l0 -193 -345 0 -345 0 -3 183
c-1 100 0 188 3 195 3 11 74 13 347 11 l343 -3 0 -193z m-707 -259 l-22 -23
-23 22 -23 22 22 23 22 23 23 -22 23 -22 -22 -23z m770 0 l-22 -23 -23 22 -23
22 22 23 22 23 23 -22 23 -22 -22 -23z m-1028 -3 c-12 -23 -21 -25 -38 -8 -20
20 -14 28 18 28 28 0 30 -2 20 -20z m1290 12 c0 -10 -22 -32 -32 -32 -4 0 -12
9 -18 20 -10 18 -8 20 20 20 16 0 30 -4 30 -8z m-322 -202 l2 -170 -350 0
-350 0 0 168 c0 93 2 171 4 173 2 2 159 3 348 2 l343 -2 3 -171z m-659 -218
c3 -1 -1 -8 -7 -14 -7 -7 -12 -22 -12 -35 0 -18 -6 -23 -24 -23 -14 0 -28 -5
-31 -10 -16 -26 -20 4 -9 57 7 32 13 59 13 60 1 2 54 -25 70 -35z m707 -37 c6
-55 6 -59 -9 -46 -10 7 -28 11 -42 9 -22 -5 -24 -2 -19 19 4 13 1 30 -6 38 -7
9 -11 16 -9 18 40 23 65 33 71 28 3 -3 10 -33 14 -66z m-92 -4 c-15 -15 -297
-201 -304 -201 -7 0 -289 186 -304 201 -6 5 118 9 304 9 186 0 310 -4 304 -9z
m-522 -156 c75 -49 136 -93 135 -97 -4 -14 -387 -266 -387 -254 0 7 20 100 45
206 25 107 48 205 50 218 3 13 9 22 13 20 4 -2 69 -43 144 -93z m593 73 c3
-13 25 -111 50 -218 25 -106 45 -199 45 -206 0 -12 -384 240 -387 254 -1 7
264 188 279 191 4 0 10 -9 13 -21z m-351 -150 c22 10 24 8 28 -22 l4 -33 -33
10 c-22 7 -40 7 -56 0 -21 -10 -22 -9 -19 23 4 30 6 32 28 22 17 -8 31 -8 48
0z m163 -193 c100 -66 182 -123 182 -127 1 -5 -165 -8 -369 -8 -203 0 -370 3
-369 8 0 7 361 250 369 248 3 -1 87 -55 187 -121z m-616 -110 c36 19 43 19 35
-1 -4 -9 -1 -23 5 -31 18 -21 1 -31 -61 -35 -30 -3 -63 -8 -72 -12 -16 -7 -17
-4 -11 25 3 19 10 44 15 57 l8 23 26 -20 c24 -19 28 -19 55 -6z m957 -31 c16
-54 15 -58 -5 -48 -10 4 -45 10 -78 13 -53 5 -60 8 -57 26 2 11 3 28 3 38 0
21 2 21 39 2 26 -13 30 -13 52 4 27 23 31 20 46 -35z m18 -259 c24 -99 43
-186 43 -192 1 -10 -123 -13 -589 -13 -324 0 -590 4 -590 8 0 9 79 350 85 370
4 10 110 12 507 10 l502 -3 42 -180z m-1146 -237 c0 -5 -13 -8 -30 -8 -34 0
-37 6 -14 32 16 17 18 17 30 0 7 -9 14 -20 14 -24z m1248 20 c19 -19 14 -28
-18 -28 -16 0 -30 4 -30 8 0 9 21 32 30 32 3 0 11 -5 18 -12z"/>
</g>
</svg>
