<?xml version="1.0" standalone="no"?>
<!DOCTYPE svg PUBLIC "-//W3C//DTD SVG 20010904//EN"
 "http://www.w3.org/TR/2001/REC-SVG-20010904/DTD/svg10.dtd">
<svg version="1.0" xmlns="http://www.w3.org/2000/svg"
 width="50.000000pt" height="50.000000pt" viewBox="0 0 700.000000 594.000000"
 preserveAspectRatio="xMidYMid meet">

<g transform="translate(0.000000,594.000000) scale(0.100000,-0.100000)"
fill="#000000" stroke="none">
<path d="M1726 5645 c-50 -18 -92 -59 -111 -109 -8 -23 -114 -358 -235 -746
l-220 -704 0 -173 c0 -151 3 -179 19 -211 41 -81 91 -102 241 -102 l110 0 0
-1410 0 -1410 -67 0 c-85 0 -144 -27 -181 -83 -26 -39 -27 -45 -30 -215 -4
-198 2 -226 54 -248 50 -21 4338 -21 4388 0 51 21 58 50 54 242 -3 194 -13
227 -81 272 -33 22 -54 28 -119 31 l-78 3 0 1409 0 1409 115 0 c150 0 195 20
239 107 13 26 16 65 16 205 l0 173 -220 705 c-121 388 -227 724 -236 747 -19
51 -70 98 -121 112 -26 8 -590 11 -1768 11 -1443 -1 -1736 -3 -1769 -15z
m1104 -197 c0 -13 -7 -70 -15 -128 -8 -58 -15 -111 -15 -117 0 -10 -117 -13
-551 -13 -437 0 -550 3 -547 13 3 6 22 69 44 140 l39 127 522 0 523 0 0 -22z
m1154 0 c3 -13 10 -66 16 -118 6 -52 13 -105 16 -117 l4 -23 -520 0 -520 0 4
23 c3 12 10 65 16 117 6 52 13 105 16 118 l4 22 480 0 480 0 4 -22z m1270
-105 c22 -71 41 -134 44 -140 3 -10 -110 -13 -547 -13 -434 0 -551 3 -551 13
0 6 -7 59 -15 117 -8 58 -15 115 -15 128 l0 22 523 0 522 0 39 -127z m-2484
-366 c0 -30 -29 -249 -33 -254 -2 -2 -270 -2 -594 -1 l-591 3 39 125 c21 69
41 131 44 138 3 9 127 12 570 12 l565 0 0 -23z m1274 -9 c12 -70 26 -191 26
-219 l0 -29 -570 0 -570 0 0 29 c0 28 14 149 26 219 l5 32 539 0 539 0 5 -32z
m1361 -108 l42 -135 -590 -3 c-325 -1 -592 -1 -594 1 -4 5 -33 224 -33 254 l0
23 567 -2 566 -3 42 -135z m-2693 -325 c2 -3 -6 -85 -18 -182 -13 -98 -23
-181 -24 -185 0 -10 -1290 -11 -1290 -2 0 12 102 339 112 357 8 16 48 17 612
17 331 0 605 -2 608 -5z m1383 -5 c3 -5 16 -91 29 -190 l22 -180 -646 0 -646
0 22 180 c13 99 26 185 29 190 8 14 1182 14 1190 0z m1415 -12 c11 -26 110
-342 110 -352 0 -9 -1290 -7 -1290 2 -1 4 -11 87 -24 185 -12 97 -20 179 -18
182 3 3 277 5 609 5 l603 0 10 -22z m150 -643 l0 -95 -2160 0 -2160 0 0 95 0
95 2160 0 2160 0 0 -95z m-380 -980 l0 -704 -536 -3 -536 -3 -24 -28 c-26 -30
-31 -75 -13 -109 25 -46 45 -48 594 -48 l515 0 0 -610 0 -610 -187 2 -188 3
-5 330 -5 330 -33 67 c-124 253 -482 278 -638 44 -61 -92 -64 -114 -64 -463
l0 -313 -660 0 -660 0 0 313 c0 352 -3 375 -68 467 -158 227 -499 204 -633
-42 l-34 -63 -5 -335 -5 -335 -187 -3 -188 -2 0 610 0 610 515 0 c549 0 569 2
594 48 18 34 13 79 -13 109 l-24 28 -536 3 -536 3 0 704 0 705 1780 0 1780 0
0 -705z m-2718 -1386 c21 -11 50 -38 65 -61 l28 -41 3 -314 3 -313 -190 0
-191 0 0 303 c0 338 4 359 71 410 66 49 135 55 211 16z m2013 20 c56 -15 104
-54 126 -103 17 -37 19 -70 19 -343 l0 -303 -191 0 -190 0 3 313 3 314 27 41
c27 40 65 66 118 83 35 10 40 10 85 -2z m985 -1024 l0 -95 -2060 0 -2060 0 0
95 0 95 2060 0 2060 0 0 -95z"/>
<path d="M2204 3201 c-23 -10 -54 -36 -70 -57 l-29 -37 -3 -248 c-3 -233 -2
-250 17 -288 46 -89 100 -104 377 -99 197 3 211 4 249 26 22 13 52 39 65 59
25 37 25 37 25 288 l0 251 -27 41 c-16 24 -44 49 -70 62 -41 19 -60 21 -269
21 -197 0 -229 -3 -265 -19z m454 -353 l2 -188 -190 0 -190 0 0 190 0 190 188
-2 187 -3 3 -187z"/>
<path d="M3742 3213 c-12 -4 -738 -905 -785 -973 -21 -31 -22 -69 -1 -98 9
-13 88 -77 177 -144 89 -67 164 -123 166 -125 2 -1 -35 -180 -83 -395 -47
-216 -86 -405 -86 -419 0 -65 75 -106 130 -72 16 10 203 235 415 501 402 503
402 504 372 559 -7 12 -87 78 -179 147 -93 70 -168 131 -168 136 0 6 38 182
85 392 47 210 85 395 85 411 0 57 -73 102 -128 80z m-192 -703 c-43 -194 -50
-236 -40 -259 7 -17 68 -70 165 -142 85 -63 154 -118 155 -123 0 -11 -421
-538 -427 -533 -2 2 19 106 47 231 30 138 48 237 44 252 -5 18 -54 61 -166
145 -88 66 -157 126 -155 132 5 17 421 537 425 532 2 -2 -20 -108 -48 -235z"/>
<path d="M4280 3209 c-47 -19 -88 -59 -105 -102 -14 -36 -16 -79 -13 -278 3
-232 3 -236 28 -272 13 -20 43 -46 65 -59 38 -22 52 -23 249 -26 277 -5 331
10 377 99 19 38 20 55 17 288 l-3 248 -29 37 c-53 69 -80 76 -336 75 -124 0
-236 -5 -250 -10z m440 -359 l0 -190 -190 0 -190 0 0 183 c0 101 3 187 7 190
3 4 89 7 190 7 l183 0 0 -190z"/>
</g>
</svg>
