<?xml version="1.0" standalone="no"?>
<!DOCTYPE svg PUBLIC "-//W3C//DTD SVG 20010904//EN"
 "http://www.w3.org/TR/2001/REC-SVG-20010904/DTD/svg10.dtd">
<svg version="1.0" xmlns="http://www.w3.org/2000/svg"
 width="50.000000pt" height="50.000000pt" viewBox="0 0 700.000000 545.000000"
 preserveAspectRatio="xMidYMid meet">

<g transform="translate(0.000000,545.000000) scale(0.100000,-0.100000)"
fill="#000000" stroke="none">
<path d="M3272 3983 c-22 -20 -57 -83 -120 -218 l-89 -190 -629 -5 c-615 -5
-630 -6 -686 -27 -152 -58 -274 -197 -307 -351 -8 -37 -11 -272 -11 -765 0
-783 -1 -771 61 -888 38 -70 126 -157 197 -193 112 -57 95 -56 989 -56 l823 0
0 -118 c0 -147 16 -208 65 -251 43 -37 102 -42 152 -12 30 19 85 119 179 329
l24 52 490 0 c545 0 593 4 704 63 107 57 195 167 230 286 24 81 24 1486 1
1576 -43 164 -178 296 -350 341 -39 11 -202 14 -772 14 l-723 0 0 136 c0 165
-11 214 -60 265 -33 35 -42 39 -86 39 -40 0 -56 -6 -82 -27z m-252 -490 c0 -4
-124 -269 -276 -590 l-277 -584 5 -68 c6 -80 33 -132 81 -159 28 -15 79 -18
446 -22 l413 -5 34 -39 c19 -22 38 -55 44 -75 5 -20 10 -160 10 -313 l0 -278
-797 0 c-474 0 -822 4 -858 10 -162 26 -298 153 -335 312 -6 26 -10 321 -10
754 0 766 0 766 53 854 57 94 166 176 265 199 44 11 1202 14 1202 4z m1955 -7
c125 -33 223 -112 278 -226 l32 -65 0 -765 0 -765 -26 -55 c-33 -71 -114 -158
-178 -193 -96 -53 -143 -57 -653 -57 -258 0 -468 3 -468 6 0 3 120 258 266
567 147 309 276 585 287 612 38 97 6 223 -67 263 -27 15 -79 18 -438 22 -394
5 -407 6 -435 26 -15 12 -37 36 -48 55 -18 31 -20 55 -23 312 l-3 277 713 0
c563 0 723 -3 763 -14z"/>
<path d="M5447 3102 c-15 -17 -17 -78 -17 -674 0 -622 1 -656 18 -671 25 -23
78 -21 102 3 20 20 20 33 20 668 0 726 3 692 -69 692 -24 0 -44 -7 -54 -18z"/>
</g>
</svg>
