<?xml version="1.0" standalone="no"?>
<!DOCTYPE svg PUBLIC "-//W3C//DTD SVG 20010904//EN"
 "http://www.w3.org/TR/2001/REC-SVG-20010904/DTD/svg10.dtd">
<svg version="1.0" xmlns="http://www.w3.org/2000/svg"
 width="20.000000pt" height="20.000000pt" viewBox="0 0 300.000000 300.000000"
 preserveAspectRatio="xMidYMid meet">
<metadata>
Created by potrace 1.10, written by Peter Selinger 2001-2011
</metadata>
<g transform="translate(0.000000,300.000000) scale(0.100000,-0.100000)"
fill="#000000" stroke="none">
<path d="M1757 2989 c-110 -18 -168 -139 -117 -244 15 -30 35 -53 61 -68 37
-21 39 -25 39 -69 l0 -48 -124 0 c-111 0 -126 -2 -150 -21 -27 -21 -27 -23
-24 -120 l3 -99 -125 0 -125 0 0 201 c0 238 4 229 -114 229 l-76 0 -22 39
c-62 109 -229 103 -292 -9 -29 -52 -27 -144 6 -188 73 -98 233 -92 288 11 18
33 24 37 58 37 l37 0 0 -160 0 -160 -95 0 c-158 0 -243 -47 -285 -158 -18 -47
-20 -78 -20 -322 l0 -270 -120 0 -120 0 0 243 0 244 37 24 c49 33 73 81 73
149 0 175 -233 232 -319 79 -44 -78 -14 -193 59 -233 l35 -18 -3 -272 c-2
-206 1 -277 11 -296 13 -25 13 -25 180 -28 l167 -2 0 -70 0 -70 -264 0 c-227
0 -267 -2 -280 -16 -13 -13 -16 -44 -16 -180 0 -124 -3 -164 -12 -164 -18 -1
-62 -39 -82 -72 -24 -37 -23 -125 2 -175 59 -114 241 -110 299 7 28 54 29 101
4 156 -18 39 -66 84 -90 84 -7 0 -11 41 -11 125 l0 125 225 0 225 0 0 -90 0
-90 -59 0 c-93 0 -91 6 -91 -256 0 -175 -3 -224 -13 -224 -21 0 -77 -57 -92
-95 -63 -150 105 -293 250 -212 47 26 85 92 85 147 -1 67 -64 160 -109 160 -8
0 -11 58 -11 185 0 170 1 185 18 185 12 0 22 -16 35 -60 23 -79 71 -133 143
-160 50 -18 77 -20 332 -20 l277 0 -3 -60 -4 -60 -122 0 c-164 0 -166 -1 -166
-124 l0 -93 -37 -24 c-53 -34 -87 -105 -79 -163 14 -92 78 -147 170 -147 80 0
140 38 165 104 29 75 -4 172 -70 210 -37 21 -39 25 -39 70 l0 47 124 0 c111 0
126 2 150 21 27 21 27 23 24 120 l-3 99 158 0 157 0 0 -89 c0 -97 8 -114 57
-114 41 0 53 27 53 120 l0 83 65 0 c79 0 156 27 202 72 42 41 73 123 73 193
l0 55 113 0 112 0 14 -31 c7 -16 31 -42 52 -56 115 -76 255 -7 267 132 15 178
-219 253 -317 102 l-24 -37 -109 0 -108 0 0 168 0 167 256 -3 c219 -2 260 0
280 13 24 15 24 18 24 179 l0 163 37 24 c52 34 74 77 74 143 0 80 -27 124 -98
160 -122 61 -265 -58 -239 -199 8 -40 58 -102 93 -116 22 -8 23 -12 23 -128
l0 -120 -225 -3 -225 -3 0 253 0 252 83 0 c128 0 127 -1 127 180 0 135 2 149
18 154 28 9 78 67 91 105 16 50 14 71 -15 129 -20 40 -37 58 -68 74 -148 77
-301 -61 -241 -217 16 -43 68 -95 94 -95 8 0 11 -29 9 -106 l-3 -107 -57 0
c-56 0 -58 2 -90 44 -20 26 -54 54 -83 69 -49 25 -53 25 -340 28 l-290 3 3 59
4 60 122 0 c164 0 166 1 166 124 l0 93 38 24 c52 34 86 105 78 162 -16 107
-99 165 -209 146z m83 -39 c63 -32 85 -75 81 -158 -1 -15 -23 -45 -56 -78
l-55 -55 0 -79 c0 -98 -2 -100 -141 -100 -92 0 -105 -2 -126 -22 -32 -30 -33
-121 -1 -155 21 -23 23 -23 280 -23 317 0 332 -3 410 -81 60 -60 95 -75 152
-65 56 11 71 36 74 136 4 100 -8 134 -59 171 -57 40 -75 118 -39 176 50 83
176 84 224 2 21 -36 23 -102 4 -131 -9 -13 -34 -42 -57 -64 l-41 -42 0 -130
c0 -153 1 -152 -104 -152 -58 0 -67 -3 -85 -26 -20 -25 -21 -39 -21 -269 l0
-242 26 -24 c25 -24 27 -24 241 -24 l215 0 24 28 c22 26 24 36 24 138 l0 110
-49 52 c-77 83 -89 123 -51 184 27 45 64 66 115 66 55 0 87 -21 124 -80 28
-45 29 -48 14 -77 -9 -17 -40 -55 -69 -84 l-54 -53 0 -150 0 -149 -26 -10
c-14 -6 -130 -10 -259 -10 l-234 0 -20 -26 c-19 -24 -21 -40 -21 -179 0 -148
1 -153 25 -179 23 -25 28 -26 130 -26 l107 0 51 54 c58 60 94 73 156 56 101
-27 122 -180 31 -234 -36 -21 -97 -23 -131 -6 -13 7 -42 33 -65 57 l-40 43
-111 0 c-106 0 -112 -1 -131 -24 -12 -16 -21 -49 -25 -93 -12 -124 -83 -189
-222 -202 -97 -9 -108 -20 -115 -113 -3 -44 -10 -73 -17 -76 -10 -3 -13 15
-13 66 0 59 -3 73 -25 96 -24 26 -25 26 -173 26 -187 0 -188 -1 -194 -132 -1
-47 -6 -89 -9 -92 -3 -3 -58 -7 -123 -9 -105 -3 -119 -5 -139 -25 -17 -17 -22
-34 -22 -73 0 -46 3 -54 42 -90 101 -93 96 -180 -14 -249 l-46 -30 -36 21
c-20 12 -48 34 -63 50 -24 25 -28 38 -28 85 0 55 1 58 55 111 l55 55 0 77 c0
47 5 82 12 89 8 8 50 12 122 12 99 0 112 2 133 22 32 30 33 121 1 155 -21 23
-23 23 -280 23 -164 0 -276 4 -306 12 -62 15 -127 80 -143 143 -14 55 -51 90
-80 75 -44 -24 -49 -46 -49 -223 l0 -169 50 -49 c58 -56 74 -90 65 -138 -9
-48 -34 -82 -72 -97 -73 -31 -145 -5 -175 64 -29 65 -19 101 47 166 l55 54 0
204 c0 145 3 207 12 216 7 7 29 12 50 12 28 0 46 7 63 25 22 21 25 33 25 103
0 65 -4 84 -21 106 l-20 26 -220 0 -220 0 -24 -25 c-24 -23 -25 -30 -25 -141
l0 -118 49 -45 c57 -53 75 -91 66 -140 -9 -48 -34 -82 -72 -97 -72 -30 -136
-7 -183 67 l-32 49 23 37 c12 21 44 59 71 84 l48 45 0 145 c0 99 4 149 12 157
9 9 79 12 255 12 l244 0 24 25 c21 20 25 34 25 85 0 51 -4 65 -25 85 -23 24
-28 25 -169 25 -93 0 -147 4 -152 11 -3 6 -9 134 -12 285 l-5 275 -36 31 c-52
45 -71 78 -71 121 0 79 55 131 136 129 74 -1 124 -53 124 -127 0 -47 -13 -71
-67 -121 l-43 -40 0 -243 0 -242 25 -24 c23 -24 31 -25 135 -25 104 0 112 1
135 25 l25 24 0 259 c0 299 6 330 72 386 48 41 102 56 204 56 66 0 81 3 101
22 22 21 23 27 23 175 0 152 0 154 -26 180 -39 39 -84 27 -145 -36 -33 -35
-58 -52 -84 -57 -79 -14 -155 48 -155 128 0 80 50 128 132 128 52 -1 73 -12
122 -67 37 -42 40 -43 101 -43 96 0 95 2 95 -208 0 -229 -5 -222 159 -222 104
0 117 2 138 22 20 19 23 31 23 98 0 108 2 109 138 113 101 3 115 5 135 25 17
17 22 34 22 72 0 47 -3 53 -52 100 -93 89 -84 169 27 243 31 22 42 21 90 -3z"/>
<path d="M1729 2891 c-21 -22 -29 -39 -29 -66 0 -49 44 -95 92 -95 36 1 55 12
81 50 25 36 21 65 -14 105 -41 46 -87 48 -130 6z m105 -27 c35 -34 10 -96 -39
-96 -53 0 -77 56 -43 100 14 17 63 15 82 -4z"/>
<path d="M780 2763 c-46 -42 -49 -82 -10 -127 42 -47 93 -50 132 -8 41 43 41
91 -1 133 -38 38 -80 39 -121 2z m106 -38 c20 -31 15 -53 -17 -77 -23 -17 -30
-18 -50 -8 -29 16 -39 29 -39 54 0 53 76 76 106 31z"/>
<path d="M2435 2638 c-65 -35 -73 -102 -20 -155 30 -30 40 -35 68 -29 18 3 44
20 60 38 37 42 32 90 -13 131 -32 29 -62 34 -95 15z m77 -45 c25 -23 23 -68
-4 -87 -32 -23 -54 -20 -77 11 -46 57 27 125 81 76z"/>
<path d="M318 2291 c-45 -40 -45 -92 0 -132 48 -43 91 -40 132 9 38 45 35 83
-10 125 -40 36 -80 35 -122 -2z m104 -28 c22 -20 23 -56 2 -77 -53 -53 -137
20 -87 76 20 22 61 23 85 1z"/>
<path d="M895 2241 c-68 -17 -114 -64 -134 -135 -14 -55 -15 -1138 0 -1207 14
-64 67 -122 126 -138 31 -8 215 -11 635 -9 542 3 596 4 625 20 47 26 82 77 93
138 13 70 13 1110 0 1180 -11 61 -46 112 -93 138 -29 16 -81 17 -627 19 -327
1 -608 -2 -625 -6z m1241 -55 c17 -10 40 -33 50 -50 18 -29 19 -61 19 -636 0
-575 -1 -607 -19 -636 -10 -17 -33 -40 -50 -50 -29 -18 -61 -19 -636 -19 -575
0 -607 1 -636 19 -17 10 -40 33 -50 50 -18 29 -19 61 -19 636 0 573 1 607 19
636 21 35 48 54 91 65 17 4 293 7 615 6 554 -2 587 -3 616 -21z"/>
<path d="M1370 2118 c-56 -12 -80 -33 -80 -68 0 -49 19 -55 133 -42 56 6 114
9 129 6 l27 -6 -29 -37 c-94 -118 -380 -529 -380 -548 0 -60 42 -85 138 -82
37 1 66 -2 66 -7 -1 -5 -18 -69 -39 -143 -20 -74 -34 -142 -32 -152 6 -24 9
-24 -49 8 -27 15 -80 57 -117 94 -153 152 -194 373 -106 567 16 36 29 73 29
83 0 29 -29 50 -64 47 -26 -3 -35 -11 -59 -55 -38 -71 -67 -192 -67 -277 1
-408 366 -704 765 -621 235 49 431 245 480 480 84 401 -217 769 -625 764 -41
-1 -95 -6 -120 -11z m239 -39 c167 -28 340 -156 414 -309 54 -111 70 -186 64
-300 -9 -161 -71 -296 -186 -402 -234 -215 -589 -208 -816 16 -125 123 -185
283 -172 461 8 116 67 268 94 242 4 -4 -1 -29 -11 -55 -50 -127 -61 -277 -30
-383 39 -134 151 -274 266 -334 l57 -30 25 24 c14 14 26 30 26 37 0 8 16 71
35 141 19 70 35 133 35 139 0 7 -8 22 -18 35 -16 19 -29 23 -87 24 -53 2 -71
6 -81 20 -18 24 -19 22 194 319 95 131 175 250 178 263 8 31 -18 61 -61 69
-17 3 -65 1 -105 -5 -76 -10 -100 -7 -81 12 25 25 157 33 260 16z"/>
<path d="M1685 1990 c-17 -19 -94 -272 -95 -311 0 -9 8 -27 19 -40 15 -18 31
-24 92 -28 l74 -6 0 -30 c0 -23 -46 -93 -188 -291 -103 -143 -187 -270 -187
-281 0 -54 74 -73 198 -50 204 39 377 196 436 396 10 33 16 92 16 151 0 109
-16 174 -63 265 -52 98 -180 215 -263 239 -14 4 -27 0 -39 -14z m61 -37 c27
-15 80 -57 117 -94 257 -255 176 -678 -158 -830 -71 -32 -197 -53 -252 -43
l-32 6 29 37 c94 118 380 529 380 548 0 60 -42 85 -138 82 -37 -1 -66 2 -66 7
1 5 18 69 39 143 20 74 34 142 32 152 -6 24 -9 24 49 -8z"/>
<path d="M1472 1727 c-48 -51 -172 -233 -172 -253 0 -35 31 -54 88 -54 71 0
82 -13 69 -84 -8 -42 -7 -59 3 -71 31 -37 58 -15 164 134 76 107 86 133 61
161 -14 16 -31 20 -75 20 -74 0 -84 11 -69 78 17 83 -20 121 -69 69z m58 10
c0 -1 -9 -28 -20 -60 -39 -112 -21 -137 99 -137 l74 0 -20 -22 c-26 -29 -170
-234 -176 -251 -2 -6 -7 -9 -11 -6 -3 3 3 32 14 64 38 111 21 135 -97 135
l-72 0 50 68 c28 37 72 99 97 139 39 59 62 86 62 70z"/>
<path d="M1070 1960 c-11 -11 -20 -29 -20 -40 0 -24 34 -60 55 -60 17 0 65 43
65 58 0 19 -42 62 -61 62 -10 0 -28 -9 -39 -20z"/>
<path d="M2759 2031 c-84 -85 37 -218 124 -137 33 31 43 68 27 106 -27 64
-102 80 -151 31z m121 -59 c0 -44 -20 -64 -60 -60 -61 5 -74 77 -20 105 35 17
80 -8 80 -45z"/>
<path d="M2641 1115 c-41 -47 -40 -78 3 -121 44 -44 86 -46 127 -5 38 39 39
87 3 130 -20 25 -34 31 -64 31 -31 0 -44 -7 -69 -35z m104 -20 c29 -28 31 -42
9 -73 -28 -41 -104 -18 -104 32 0 26 9 39 35 54 28 16 33 15 60 -13z"/>
<path d="M114 866 c-24 -24 -34 -43 -34 -65 0 -40 44 -89 87 -97 28 -6 38 -1
68 29 47 47 48 86 1 133 -22 22 -44 34 -61 34 -17 0 -39 -12 -61 -34z m98 -23
c34 -30 12 -103 -31 -103 -29 0 -61 30 -61 57 0 54 54 81 92 46z"/>
<path d="M524 456 c-46 -46 -46 -86 0 -132 22 -22 44 -34 61 -34 17 0 39 12
61 34 46 46 46 86 0 132 -45 45 -77 45 -122 0z m109 -38 l21 -28 -21 -27 c-25
-34 -47 -39 -78 -19 -30 19 -33 60 -8 88 23 26 61 19 86 -14z"/>
<path d="M1160 257 c-26 -20 -50 -60 -50 -84 0 -12 14 -38 31 -58 24 -27 39
-35 66 -35 49 0 93 45 93 95 0 70 -90 122 -140 82z m91 -43 c15 -18 15 -60 -1
-79 -16 -20 -64 -19 -84 1 -29 28 -15 85 24 96 21 6 47 -1 61 -18z"/>
<path d="M2122 574 c-38 -26 -24 -84 25 -99 17 -4 29 1 48 19 30 30 32 49 5
76 -24 24 -48 25 -78 4z"/>
<path d="M2292 574 c-25 -17 -29 -51 -8 -80 12 -16 27 -19 90 -19 l76 0 0 -35
c-1 -28 -7 -39 -33 -55 -52 -33 -77 -80 -77 -145 0 -66 24 -110 80 -148 30
-20 44 -23 97 -20 102 6 155 59 161 161 3 53 0 67 -20 97 -13 19 -38 44 -55
55 -29 19 -31 23 -35 98 -4 104 -9 107 -148 107 -79 0 -111 -4 -128 -16z m222
-40 c11 -10 16 -34 16 -72 0 -54 2 -58 51 -108 42 -43 52 -59 56 -96 16 -137
-150 -201 -236 -92 -15 19 -21 41 -21 75 0 46 4 54 55 109 39 43 55 68 55 87
-1 53 -42 83 -114 83 -44 0 -69 13 -44 23 7 3 48 6 90 6 57 1 81 -3 92 -15z"/>
<path d="M2458 320 c-14 -10 -31 -33 -38 -50 -18 -43 6 -94 55 -117 32 -15 38
-15 68 -1 20 10 41 31 51 52 15 31 15 39 2 70 -15 35 -59 66 -94 66 -11 0 -31
-9 -44 -20z m92 -40 c11 -11 20 -29 20 -40 0 -26 -34 -60 -60 -60 -25 0 -60
34 -60 58 0 54 62 80 100 42z"/>
</g>
</svg>
