<?xml version="1.0" standalone="no"?>
<!DOCTYPE svg PUBLIC "-//W3C//DTD SVG 20010904//EN"
 "http://www.w3.org/TR/2001/REC-SVG-20010904/DTD/svg10.dtd">
<svg version="1.0" xmlns="http://www.w3.org/2000/svg"
 width="50.000000pt" height="50.000000pt" viewBox="0 0 700.000000 543.000000"
 preserveAspectRatio="xMidYMid meet">

<g transform="translate(0.000000,543.000000) scale(0.100000,-0.100000)"
fill="#000000" stroke="none">
<path d="M905 5104 c-16 -8 -39 -27 -50 -42 -20 -27 -20 -45 -23 -2070 -2
-2241 -6 -2106 57 -2230 60 -118 174 -213 305 -255 l71 -22 2235 0 2235 0 71
22 c130 41 238 131 302 251 66 124 62 -19 60 2234 -3 2025 -3 2043 -23 2070
-62 84 -190 72 -237 -22 -16 -31 -18 -69 -18 -327 l0 -293 -2390 0 -2390 0 0
293 c0 258 -2 296 -18 327 -35 70 -119 99 -187 64z m4935 -929 c56 -29 67 -93
24 -144 l-26 -31 -2338 0 -2338 0 -26 31 c-42 50 -32 114 22 143 24 13 318 15
2340 16 2044 0 2316 -2 2342 -15z m-3244 -664 c141 -64 142 -265 2 -335 l-52
-26 -546 0 -546 0 -52 26 c-140 70 -140 271 2 335 38 17 75 19 596 19 521 0
558 -2 596 -19z m2864 -50 c13 -25 17 -16 -127 -294 -68 -131 -123 -241 -123
-243 0 -2 103 -4 228 -4 240 0 252 -2 252 -46 0 -14 -137 -172 -418 -480 -230
-253 -426 -465 -435 -473 -23 -19 -65 -6 -72 22 -4 15 43 128 159 377 l164
355 -254 5 c-264 5 -273 7 -274 48 0 6 83 179 185 382 l185 370 260 0 c246 0
260 -1 270 -19z m-2791 -748 c31 -26 42 -73 26 -111 -27 -64 -9 -62 -697 -62
-478 0 -629 3 -648 13 -37 18 -60 71 -49 110 20 71 -21 67 699 67 602 0 649
-1 669 -17z m1 -380 c50 -44 40 -126 -17 -152 -34 -16 -1272 -16 -1306 0 -57
26 -67 108 -17 152 l30 27 640 0 640 0 30 -27z m-1 -370 c31 -26 42 -73 26
-111 -27 -64 -9 -62 -697 -62 -478 0 -629 3 -648 13 -37 18 -60 71 -49 110 20
71 -21 67 699 67 602 0 649 -1 669 -17z m1 -380 c50 -44 40 -126 -17 -152 -34
-16 -1272 -16 -1306 0 -57 26 -67 108 -17 152 l30 27 640 0 640 0 30 -27z
m3220 -586 c0 -66 -37 -145 -85 -182 -78 -59 79 -55 -2305 -55 -2385 0 -2229
-4 -2306 55 -46 35 -84 117 -84 182 l0 53 2390 0 2390 0 0 -53z"/>
</g>
</svg>
