<?xml version="1.0" standalone="no"?>
<!DOCTYPE svg PUBLIC "-//W3C//DTD SVG 20010904//EN"
 "http://www.w3.org/TR/2001/REC-SVG-20010904/DTD/svg10.dtd">
<svg version="1.0" xmlns="http://www.w3.org/2000/svg"
 width="20.000000pt" height="20.000000pt" viewBox="0 0 300.000000 200.000000"
 preserveAspectRatio="xMidYMid meet">
<metadata>
Created by potrace 1.10, written by Peter Selinger 2001-2011
</metadata>
<g transform="translate(0.000000,200.000000) scale(0.100000,-0.100000)"
fill="#000000" stroke="none">
<path d="M1066 1718 c-53 -54 -101 -132 -91 -149 4 -5 1 -17 -5 -26 -9 -16
-10 -15 -5 5 4 12 4 22 2 22 -5 0 -55 -89 -109 -190 -39 -74 -93 -139 -120
-145 -15 -4 -39 -15 -53 -26 -16 -14 -25 -16 -25 -8 0 10 -3 10 -12 1 -7 -7
-21 -12 -32 -12 -12 0 -28 -5 -36 -10 -13 -9 -13 -11 0 -20 8 -5 20 -9 25 -9
6 0 4 3 -2 6 -22 8 -14 21 12 19 25 -1 36 -16 13 -16 -9 0 -9 -3 1 -9 11 -7
10 -10 -5 -14 -13 -3 -10 -5 9 -6 20 -1 26 3 21 12 -6 9 -4 9 7 1 8 -7 22 -8
34 -3 31 12 39 10 24 -7 -10 -13 -29 -15 -89 -12 -47 2 -77 -1 -77 -7 0 -6 26
-9 61 -8 34 2 72 0 85 -3 22 -5 23 -7 9 -21 -13 -12 -20 -13 -38 -3 -17 9 -25
9 -34 0 -8 -8 -6 -9 9 -4 17 7 18 6 7 -8 -11 -14 -17 -14 -59 0 -35 12 -48 13
-51 4 -2 -7 -8 -12 -13 -12 -4 0 -6 7 -3 15 4 8 1 15 -5 15 -6 0 -11 -4 -11
-10 0 -5 -4 -10 -10 -10 -5 0 -7 8 -4 18 5 14 4 15 -5 2 -16 -23 -14 -26 28
-39 40 -11 49 -34 22 -51 -11 -6 -11 -9 0 -13 11 -4 11 -5 -1 -6 -8 0 -28 6
-45 14 l-30 14 30 -5 30 -5 -25 15 c-16 9 -27 11 -31 4 -4 -6 -15 -7 -26 -4
-24 8 -55 -2 -47 -15 3 -5 -2 -9 -10 -9 -10 0 -13 6 -10 18 5 13 4 14 -4 3 -5
-7 -15 -10 -21 -7 -10 6 -15 -6 -12 -26 0 -5 -8 -8 -19 -8 -11 0 -20 5 -20 10
0 6 5 10 12 10 6 0 9 3 5 6 -9 10 16 32 30 27 7 -3 13 0 13 6 0 16 -31 13 -44
-5 -9 -12 -17 -13 -40 -4 -30 11 -70 5 -61 -10 2 -4 14 -10 25 -13 11 -3 18
-1 14 4 -3 5 4 9 15 9 11 0 23 -5 27 -12 5 -7 2 -9 -8 -6 -8 4 -15 1 -15 -7 0
-7 15 -17 34 -23 31 -10 37 -7 35 19 -1 10 93 3 115 -9 24 -13 21 -42 -3 -42
-17 0 -18 16 -1 24 6 3 1 3 -12 0 -15 -4 -21 -2 -17 4 3 6 1 14 -5 18 -8 5 -9
3 -4 -6 6 -9 0 -11 -23 -5 -23 5 -33 2 -40 -11 -8 -14 -13 -15 -45 -3 -29 10
-39 10 -51 0 -9 -8 -16 -9 -16 -4 0 10 -47 36 -84 48 -10 3 -17 8 -14 11 3 2
28 -4 57 -15 64 -26 68 -17 5 10 -44 18 -91 18 -79 -1 3 -5 -1 -11 -7 -14 -7
-3 -2 -3 11 0 17 4 21 3 16 -6 -5 -9 -1 -10 15 -5 14 4 20 3 17 -2 -10 -16 90
-65 116 -57 12 3 19 3 14 -1 -4 -5 12 -19 35 -32 39 -23 43 -23 55 -7 7 9 14
21 15 26 2 5 23 2 46 -6 24 -9 46 -15 50 -15 20 3 33 -2 27 -10 -8 -13 27 -31
60 -31 15 0 24 -4 20 -10 -4 -6 -11 -8 -16 -4 -5 3 -9 2 -8 -3 3 -20 -4 -21
-47 -6 -34 11 -49 12 -57 4 -12 -12 -2 -15 38 -12 17 2 17 0 5 -8 -12 -8 -9
-12 18 -17 17 -4 32 -11 32 -16 0 -5 10 -6 21 -3 14 5 19 4 15 -4 -4 -6 -1 -9
7 -5 8 3 17 -2 20 -10 6 -16 78 -40 87 -28 11 14 52 33 58 26 4 -4 1 -9 -6
-11 -6 -3 -9 -9 -6 -15 4 -6 -1 -8 -15 -3 -15 4 -21 2 -21 -9 0 -10 6 -13 15
-10 8 4 15 1 15 -5 0 -18 63 -41 91 -34 13 3 21 2 16 -2 -8 -10 43 -46 55 -39
12 8 10 24 -3 21 -6 -1 -13 6 -14 16 -2 9 1 17 6 17 5 0 9 4 9 10 0 6 -9 6
-26 0 -36 -14 -51 -13 -36 2 7 7 12 16 12 22 0 5 -6 2 -12 -7 -13 -17 -63 -13
-52 4 3 5 -2 6 -10 3 -9 -3 -16 -1 -16 5 0 6 5 11 11 11 5 0 7 4 4 10 -3 6 1
10 10 10 9 0 13 -4 10 -10 -3 -6 -1 -10 5 -10 6 0 8 -4 5 -10 -8 -13 8 -13 21
0 13 13 46 2 38 -12 -3 -5 3 -4 14 3 25 16 59 5 43 -14 -8 -11 -4 -14 19 -14
17 0 30 3 30 7 0 4 10 6 23 5 12 -1 28 2 35 8 8 6 12 6 12 -2 0 -7 10 -10 25
-7 14 3 37 1 53 -3 24 -7 28 -5 29 12 1 11 6 24 11 29 9 9 74 -1 68 -11 -2 -3
7 -6 20 -6 22 0 23 1 7 12 -9 7 -25 13 -34 13 -24 0 -32 16 -16 32 7 7 22 27
32 45 10 18 22 30 26 27 4 -2 10 0 14 5 8 14 65 -8 65 -25 0 -8 -7 -14 -15
-14 -8 0 -15 4 -15 9 0 10 -49 6 -58 -5 -4 -4 1 -4 11 -1 19 7 23 -3 6 -20 -8
-8 -5 -13 10 -18 12 -3 21 -11 21 -16 0 -5 8 -9 17 -9 12 0 14 -3 6 -11 -8 -8
-18 -6 -37 6 -14 9 -31 15 -38 12 -8 -4 -6 -6 5 -6 9 -1 17 -6 17 -12 0 -5 5
-7 10 -4 7 4 9 -2 4 -19 -5 -22 -3 -26 17 -26 19 0 21 -2 9 -10 -13 -8 -13
-11 -1 -22 9 -9 12 -9 7 -1 -6 12 22 33 43 33 22 0 10 -20 -11 -21 -20 0 -19
-2 7 -11 17 -6 42 -19 57 -29 14 -11 32 -19 40 -19 7 0 20 -5 28 -11 16 -11
14 -11 -50 6 -15 4 -20 3 -13 -2 7 -5 8 -14 4 -21 -6 -10 -14 -10 -36 -2 -30
11 -69 4 -60 -11 4 -5 -1 -9 -9 -9 -20 0 -40 36 -26 45 6 4 17 2 25 -5 10 -8
19 -8 34 -1 13 7 22 8 26 1 3 -5 12 -10 18 -10 8 0 7 3 -2 9 -7 5 -10 14 -6
20 4 8 -5 7 -27 -2 -29 -12 -37 -12 -53 -1 -12 9 -21 10 -25 4 -11 -17 -66 8
-67 30 -1 12 4 20 14 20 10 0 13 -6 9 -16 -3 -9 -2 -12 4 -9 6 4 30 -1 54 -10
35 -13 48 -15 63 -5 17 11 17 11 -1 6 -10 -4 -34 -1 -52 6 -28 10 -31 14 -21
27 10 12 9 13 -10 2 -15 -7 -23 -8 -23 -1 0 5 5 10 11 10 5 0 7 5 3 11 -5 8
-9 8 -14 -1 -9 -15 -45 -9 -45 7 0 6 -4 15 -9 20 -5 5 -6 2 -1 -6 6 -11 3 -13
-13 -9 -32 9 -27 -6 6 -18 21 -8 7 -10 -63 -9 -67 2 -83 0 -62 -7 15 -5 25
-13 23 -16 -2 -4 9 -8 25 -9 35 -3 38 4 7 16 -18 7 -14 8 20 7 32 0 41 -4 37
-15 -4 -11 -2 -11 8 -3 20 17 27 4 15 -24 -12 -26 -41 -34 -32 -9 9 22 -18 19
-38 -4 -12 -14 -13 -21 -5 -25 7 -3 -6 -3 -28 -1 -39 5 -39 5 13 -14 60 -21
82 -36 37 -25 -41 10 -113 42 -97 43 7 1 10 6 7 12 -5 7 -14 4 -26 -7 -18 -16
-28 -7 -11 10 4 4 8 12 8 17 1 5 2 14 3 19 0 6 6 10 12 10 5 0 7 -5 4 -11 -4
-6 2 -13 14 -16 11 -3 19 -9 16 -13 -3 -5 3 -7 12 -6 20 3 30 24 11 23 -33 -1
-47 4 -42 16 3 8 -9 18 -29 25 -40 14 -58 15 -37 2 10 -6 -3 -8 -40 -5 -38 3
-50 1 -38 -6 9 -5 14 -17 11 -28 -3 -10 1 -22 8 -26 8 -5 10 -4 5 3 -8 14 1
14 29 2 13 -5 15 -9 5 -9 -8 -1 3 -10 24 -21 22 -10 43 -17 49 -13 6 3 7 1 4
-4 -9 -14 15 -23 45 -16 16 3 19 2 10 -5 -11 -7 -6 -12 20 -22 18 -7 36 -13
40 -14 3 -1 9 -4 13 -8 4 -4 14 -4 23 -1 10 4 13 2 8 -5 -12 -19 37 -36 71
-24 15 5 27 15 26 21 -2 6 4 11 12 11 8 0 15 -5 15 -10 0 -6 14 -4 34 4 19 8
37 12 40 8 3 -3 6 0 6 7 0 8 7 10 20 6 16 -5 19 -3 13 11 -5 14 -3 15 15 5 16
-8 22 -9 22 -1 0 7 8 9 19 5 22 -7 23 13 4 37 -16 19 0 46 19 32 7 -6 36 -10
65 -9 38 1 50 -2 46 -11 -7 -20 103 -224 138 -256 18 -18 40 -28 59 -28 47 0
78 38 230 276 49 78 99 125 135 129 6 1 17 4 25 7 8 4 41 14 72 22 31 9 60 21
63 26 3 5 12 7 20 3 8 -3 15 0 15 7 0 7 8 9 21 5 15 -5 19 -4 15 4 -7 11 11
16 47 13 26 -3 57 16 57 33 0 8 4 15 10 15 5 0 7 -7 3 -16 -5 -13 -2 -15 18
-9 13 4 27 12 30 17 3 5 14 6 24 2 14 -6 16 -4 10 6 -6 10 -2 11 19 6 20 -5
26 -3 21 5 -5 8 -1 9 15 4 16 -5 20 -4 15 5 -5 9 -1 10 16 6 24 -7 24 -7 4 10
-18 15 -18 16 -2 10 10 -3 23 -6 28 -6 6 0 8 -4 5 -9 -6 -9 99 20 109 31 7 6
-87 48 -109 48 -21 0 -20 -16 2 -30 15 -9 14 -10 -5 -5 -34 9 -28 -3 10 -20
17 -8 23 -13 12 -9 -57 16 -75 16 -75 0 0 -9 -7 -16 -15 -16 -12 0 -13 4 -3
25 6 14 17 25 24 25 7 0 18 9 24 19 13 26 13 31 -4 25 -7 -3 -16 2 -20 11 -4
11 -12 14 -26 10 -11 -3 -28 -1 -37 5 -15 9 -14 10 7 5 20 -5 22 -4 8 5 -18
11 -51 3 -42 -11 3 -5 -2 -9 -11 -9 -12 0 -14 4 -5 19 14 26 13 31 -5 25 -8
-4 -15 -1 -15 6 0 6 -4 8 -10 5 -5 -3 -10 -2 -10 3 0 13 -56 35 -69 27 -6 -3
-11 1 -11 9 0 10 -6 13 -17 9 -11 -4 -14 -3 -9 5 5 8 2 10 -8 6 -9 -3 -16 -2
-16 2 0 5 -17 10 -38 11 l-37 2 30 -14 c17 -8 37 -15 45 -15 11 -1 9 -4 -5
-11 -16 -7 -14 -8 9 -4 22 5 27 3 23 -9 -5 -12 -1 -13 23 -4 20 7 34 6 47 -2
16 -10 16 -10 -3 -5 -44 12 -68 -22 -33 -47 10 -7 8 -8 -11 -4 -14 3 -29 6
-34 6 -5 0 -3 6 3 14 10 12 8 13 -9 9 -15 -4 -19 -2 -14 10 4 12 -2 18 -22 23
-24 6 -26 8 -9 14 18 6 18 7 -2 12 -29 8 -24 -21 8 -38 28 -16 8 -19 -24 -3
-21 10 -21 10 -3 -5 11 -9 26 -16 34 -16 7 0 11 -4 8 -9 -3 -5 6 -12 22 -16
39 -11 92 -13 92 -3 0 4 7 8 15 8 18 0 18 -5 5 -30 -7 -13 -7 -21 2 -26 7 -4
8 -3 4 4 -9 15 -11 15 44 -2 l45 -14 -55 3 c-74 4 -73 3 -67 18 4 10 -7 13
-46 11 -27 -1 -45 1 -38 6 19 11 -17 22 -37 11 -14 -8 -12 -12 15 -21 18 -7
30 -16 27 -21 -3 -5 -10 -7 -15 -4 -5 4 -9 1 -9 -4 0 -6 -7 -11 -16 -11 -13 0
-14 3 -5 14 10 11 8 16 -8 21 -10 3 -25 13 -33 22 -11 14 -11 16 2 11 8 -3 20
0 27 7 9 10 6 15 -14 24 -14 7 -28 9 -31 7 -3 -3 6 -9 18 -14 24 -9 24 -9 -4
-16 -16 -4 -31 -5 -34 -1 -3 3 0 5 6 5 19 0 2 28 -21 34 -21 5 -21 5 -3 -9 11
-8 17 -18 13 -21 -4 -4 -14 -1 -24 7 -9 8 -14 9 -10 3 9 -16 -41 -28 -58 -14
-13 11 -42 9 -63 -4 -15 -9 -40 9 -29 20 4 4 20 7 37 7 16 0 27 5 23 10 -3 5
-23 6 -44 3 -24 -4 -39 -2 -39 4 0 6 33 10 83 9 55 0 75 -3 62 -9 -14 -6 -15
-9 -5 -10 11 -1 9 -4 -4 -9 -18 -7 -18 -8 -2 -14 12 -5 19 0 26 18 10 26 25
31 50 16 8 -6 19 -7 24 -3 6 3 0 9 -14 13 -24 7 -24 7 5 8 30 2 29 2 -9 16
-40 14 -61 12 -51 -6 9 -13 -49 -11 -63 3 -7 7 -12 20 -12 30 0 15 8 17 50 17
27 -1 48 -4 46 -8 -6 -8 45 -6 67 3 9 5 24 5 33 2 8 -3 13 -2 9 3 -3 5 -23 12
-45 16 -22 4 -38 10 -35 14 2 4 -11 15 -30 24 -29 14 -34 14 -39 1 -4 -12 -1
-14 14 -9 11 4 20 2 20 -4 0 -6 -6 -11 -12 -12 -7 0 5 -7 27 -14 l40 -14 -40
6 c-22 3 -43 10 -46 16 -4 5 -9 5 -13 -2 -4 -6 -12 -11 -18 -11 -7 0 -6 6 2
15 17 20 1 19 -22 -2 -16 -14 -18 -14 -18 0 0 8 6 17 13 20 6 2 9 8 5 12 -4 4
-17 -3 -28 -16 -18 -21 -20 -21 -18 -5 5 29 34 43 58 29 10 -7 21 -9 24 -4 9
13 -5 21 -38 21 -25 0 -28 2 -16 11 12 8 10 9 -9 4 -18 -6 -22 -4 -17 6 4 8 1
6 -7 -3 -8 -10 -22 -18 -31 -18 -9 0 -16 -4 -16 -10 0 -5 -4 -10 -8 -10 -5 0
-9 7 -9 15 0 8 5 15 10 15 6 0 7 3 4 6 -4 4 -13 1 -21 -5 -8 -7 -19 -10 -24
-7 -6 3 -15 -1 -22 -9 -7 -8 -16 -12 -21 -9 -5 3 -6 -2 -3 -11 5 -12 9 -13 20
-4 11 9 18 8 29 -1 8 -7 15 -17 15 -22 0 -11 -59 0 -77 14 -17 14 -16 -3 2
-26 17 -23 19 -36 5 -36 -9 0 -50 70 -50 85 0 4 10 3 23 -1 28 -8 21 -1 -20
19 -18 8 -31 12 -30 9 5 -16 -19 -12 -28 4 -5 10 -16 24 -22 32 -17 18 4 52
26 44 14 -5 14 -4 2 11 -8 10 -11 20 -8 24 8 7 -31 43 -46 43 -6 0 -2 -7 9
-15 16 -12 12 -12 -21 1 -47 19 -61 30 -25 19 24 -7 24 -7 5 8 -20 16 -51 5
-39 -14 7 -12 -17 -11 -36 1 -15 9 -13 11 12 14 6 0 13 7 16 15 3 8 0 11 -6 7
-6 -3 -16 -1 -24 6 -13 13 -45 29 -83 44 -46 17 -65 14 -91 -11 -29 -29 -36
-31 -28 -10 4 8 1 15 -6 15 -6 0 -8 -5 -4 -11 4 -8 0 -9 -15 -4 -11 3 -21 2
-21 -3 0 -5 15 -13 33 -16 l32 -7 -30 -14 -30 -13 27 -1 c23 -1 31 6 42 34 8
19 18 35 21 35 3 0 3 -5 0 -10 -3 -6 6 -15 20 -20 40 -15 50 -12 25 8 l-22 18
23 1 c17 2 20 0 10 -6 -11 -7 -9 -10 6 -15 11 -3 20 -13 20 -22 0 -11 -8 -14
-31 -9 -28 5 -29 4 -7 -5 28 -12 64 -4 55 12 -5 8 -1 9 10 5 10 -4 21 -7 26
-7 13 0 -1 -38 -17 -44 -7 -3 -11 -2 -8 3 3 5 0 13 -6 17 -8 5 -10 -1 -7 -19
5 -23 3 -25 -19 -16 -14 5 -35 6 -49 3 -20 -5 -23 -3 -18 10 5 13 14 16 38 12
23 -4 20 -2 -13 10 -27 11 -39 19 -31 24 9 5 9 9 1 14 -10 6 -13 0 -10 -20 0
-4 -5 -11 -13 -16 -9 -6 -5 -7 10 -3 21 6 23 5 13 -13 -17 -32 -14 -35 27 -28
32 5 34 4 12 -5 -13 -5 -36 -7 -50 -3 -14 4 -29 8 -34 8 -5 1 -12 10 -16 20
-4 14 -9 16 -14 8 -4 -7 -5 -15 -3 -19 3 -5 -14 -6 -38 -5 -28 3 -46 10 -50
19 -9 24 1 27 36 9 39 -19 45 -20 31 -3 -6 6 -10 16 -10 20 0 5 -4 12 -8 15
-4 4 -4 0 1 -8 4 -8 -2 -5 -14 8 -12 12 -25 22 -29 22 -4 0 -29 29 -56 65 -27
35 -54 61 -59 58 -6 -3 -7 -1 -4 5 4 5 -16 44 -44 86 -52 78 -127 146 -161
146 -11 0 -43 -24 -72 -52z m58 -17 c13 -25 14 -31 1 -41 -12 -10 -15 -7 -21
14 -3 13 -3 29 0 35 3 5 0 12 -6 14 -10 4 -10 6 -1 6 7 1 19 -12 27 -28z m40
13 c10 -26 -5 -39 -21 -19 -7 11 -13 22 -13 27 0 15 28 8 34 -8z m-64 -73 c0
-9 -4 -22 -9 -29 -6 -10 -11 -10 -21 3 -11 13 -11 21 -2 36 17 27 14 38 -3 15
-19 -26 -30 -14 -14 15 l12 23 18 -23 c11 -13 19 -31 19 -40z m83 17 c3 -13 9
-33 12 -45 5 -16 3 -23 -7 -23 -14 0 -40 74 -30 85 11 11 20 4 25 -17z m59 3
c4 -4 11 -21 14 -39 9 -45 -11 -41 -25 6 -10 34 -10 34 -6 5 2 -18 1 -33 -4
-33 -9 0 -31 53 -31 72 0 10 39 1 52 -11z m-82 -58 c23 -98 30 -136 25 -141
-12 -13 -26 18 -28 61 -1 26 -5 47 -9 47 -9 0 -29 61 -22 71 12 20 23 7 34
-38z m-120 26 c0 -16 -20 -49 -29 -49 -5 0 -4 14 2 30 11 29 27 41 27 19z m17
-75 l-15 -29 -7 27 c-4 15 -1 36 6 49 12 24 12 24 22 3 6 -15 4 -30 -6 -50z
m67 20 c5 -21 2 -35 -8 -43 -12 -10 -15 -7 -21 18 -7 34 3 78 15 65 4 -5 11
-23 14 -40z m119 -16 c4 -18 9 -44 13 -57 5 -17 3 -22 -6 -19 -10 3 -32 62
-40 106 0 1 6 2 14 2 7 0 16 -15 19 -32z m-38 10 c11 -37 15 -88 6 -88 -10 0
-15 13 -26 68 -4 21 -3 32 5 32 6 0 12 -6 15 -12z m64 -10 c16 -43 21 -78 13
-78 -9 0 -32 65 -32 89 0 18 10 12 19 -11z m-259 2 c0 -16 -23 -60 -32 -60
-11 0 -10 14 4 45 11 25 28 34 28 15z m77 -78 l-11 -25 -12 29 c-9 21 -9 34
-1 52 l11 25 12 -29 c9 -21 9 -34 1 -52z m222 47 c14 -40 15 -77 2 -63 -13 12
-31 94 -21 94 4 0 13 -14 19 -31z m-276 -1 c3 -11 -9 -52 -21 -68 -10 -14 -18
27 -9 51 12 31 23 37 30 17z m134 -126 c8 -29 13 -61 10 -72 -3 -10 -1 -20 5
-22 5 -2 16 -33 24 -68 8 -36 18 -75 21 -87 3 -14 1 -23 -6 -23 -13 0 -20 14
-23 50 -2 14 -9 31 -15 38 -7 7 -14 25 -14 40 -2 38 -3 42 -18 85 -7 21 -10
49 -7 63 4 16 3 23 -3 20 -6 -4 -15 12 -21 34 -9 32 -8 45 2 57 11 14 14 11
21 -23 4 -21 15 -63 24 -92z m178 81 c3 -21 13 -57 21 -81 16 -50 17 -62 5
-62 -5 0 -17 35 -26 78 -9 42 -19 85 -22 96 -3 11 -1 16 5 12 5 -3 13 -23 17
-43z m30 -20 c16 -38 15 -52 -2 -31 -12 15 -26 68 -18 68 2 0 12 -16 20 -37z
m-395 22 c0 -3 -8 -22 -19 -43 -10 -20 -22 -52 -26 -69 -6 -32 -21 -50 -32
-40 -7 7 19 77 29 77 4 0 8 7 8 15 0 20 22 65 32 65 4 0 8 -2 8 -5z m80 -41
c0 -11 -6 -28 -14 -39 -12 -17 -13 -17 -20 8 -8 34 11 88 24 67 6 -8 10 -24
10 -36z m-65 -23 c-9 -46 -16 -57 -26 -39 -10 18 11 89 23 81 6 -3 7 -22 3
-42z m120 12 c4 -21 10 -49 15 -63 19 -54 21 -87 7 -99 -12 -9 -16 -4 -25 31
-7 27 -8 46 -2 52 13 13 13 29 0 21 -14 -9 -32 44 -25 72 8 35 23 28 30 -14z
m121 -10 c4 -27 9 -52 9 -58 1 -5 5 -17 8 -25 3 -8 11 -31 16 -50 9 -32 10
-32 4 13 -3 31 -2 47 6 47 6 0 11 -8 11 -19 0 -10 11 -55 23 -100 19 -62 21
-81 11 -81 -14 0 -29 41 -26 72 0 10 -4 21 -10 24 -11 7 -5 -47 9 -83 4 -10 2
-14 -7 -11 -12 4 -45 108 -55 173 -3 17 -9 50 -15 75 -12 57 -12 70 -1 70 5 0
12 -21 17 -47z m27 30 c13 -47 17 -93 8 -93 -11 0 -16 15 -26 73 -6 37 9 54
18 20z m191 -54 c21 -22 23 -27 9 -25 -13 1 -17 -5 -15 -22 2 -20 -2 -23 -25
-22 -42 3 -46 1 -35 -12 5 -7 15 -37 21 -66 6 -30 16 -63 22 -74 9 -16 7 -20
-10 -25 -12 -3 -21 -9 -21 -14 0 -24 -18 -5 -28 30 -15 47 -15 51 -1 51 5 0
15 -14 21 -31 21 -59 19 -20 -2 52 -18 58 -20 77 -10 92 6 10 9 33 5 50 -6 30
-5 31 10 13 8 -11 16 -29 16 -40 1 -15 3 -16 6 -5 2 9 -5 40 -16 70 l-21 54
24 -25 c12 -14 35 -37 50 -51z m-149 9 c8 -28 13 -53 11 -56 -10 -9 -26 11
-26 33 0 13 -4 35 -10 49 -6 16 -6 26 0 26 5 0 16 -23 25 -52z m-100 -5 c3
-27 15 -79 26 -118 38 -132 38 -135 23 -135 -16 0 -29 43 -20 65 3 8 2 15 -3
15 -12 0 -35 86 -26 99 3 6 2 11 -3 11 -12 0 -35 87 -27 101 13 20 23 7 30
-38z m123 30 c14 -26 24 -93 15 -93 -4 0 -15 25 -24 55 -16 52 -10 75 9 38z
m-311 -96 l-13 -30 -10 24 c-8 18 -7 33 4 59 l15 35 8 -29 c5 -18 3 -40 -4
-59z m-120 26 c-13 -24 -13 -29 0 -38 12 -9 12 -16 2 -40 -17 -39 -16 -38 -28
-30 -8 4 -8 13 0 28 9 20 9 20 -4 5 -15 -18 -42 -24 -50 -10 -3 4 4 18 15 32
21 24 21 24 15 3 -7 -32 -1 -29 17 9 19 36 20 41 6 33 -13 -8 -13 5 0 25 9 13
10 13 10 0 1 -8 6 -4 12 10 6 14 12 20 15 13 2 -6 -2 -24 -10 -40z m186 11 c4
-22 1 -47 -7 -62 l-13 -25 -8 34 c-5 22 -9 28 -12 17 -2 -9 1 -26 6 -37 12
-21 -3 -71 -21 -71 -4 0 -8 -8 -8 -18 0 -10 -6 -27 -14 -38 -14 -18 -15 -18
-21 9 -4 16 -2 40 6 59 11 28 14 29 21 12 6 -14 7 -11 3 9 -6 28 39 147 55
147 4 0 10 -16 13 -36z m-104 -39 c16 -36 18 -51 9 -75 -5 -17 -14 -30 -18
-30 -14 0 -21 50 -10 71 6 11 9 25 7 32 -3 7 -8 0 -12 -15 -8 -30 -20 -36 -27
-15 -5 12 18 77 27 77 2 0 13 -20 24 -45z m829 0 c26 1 39 0 29 -2 -17 -4 -17
-6 -2 -23 15 -16 15 -18 0 -24 -20 -7 -38 2 -29 15 3 5 0 8 -8 7 -7 -2 -12 2
-11 8 1 6 -11 9 -30 6 -30 -5 -31 -4 -17 13 8 9 16 13 18 7 1 -5 24 -8 50 -7z
m-479 -26 c6 -18 11 -42 11 -54 0 -12 7 -41 15 -65 10 -29 11 -40 3 -38 -6 2
-15 15 -19 29 -4 13 -14 48 -23 78 -9 29 -16 60 -16 67 0 25 18 15 29 -17z
m25 13 c3 -5 9 -28 15 -51 13 -60 -9 -49 -24 12 -10 41 -6 62 9 39z m-246 -94
c-5 -10 -12 -18 -17 -18 -14 0 -21 72 -9 94 10 19 12 18 23 -19 7 -24 8 -47 3
-57z m329 43 c7 -24 18 -49 24 -57 12 -14 6 -44 -8 -44 -5 0 -14 14 -20 30 -8
23 -8 30 0 30 9 0 9 2 1 8 -17 10 -36 84 -21 79 6 -2 17 -23 24 -46z m32 27
l11 -23 -6 23 c-6 25 8 29 26 7 15 -18 7 -29 -26 -39 -18 -5 -24 -1 -32 24
-13 37 8 43 27 8z m126 2 c6 -4 21 -6 35 -4 126 16 135 16 158 -3 25 -19 22
-53 -4 -53 -17 0 -18 21 -1 40 6 8 3 7 -9 -3 -13 -11 -24 -13 -30 -7 -16 16
-160 17 -150 1 3 -5 -1 -14 -9 -21 -15 -12 -24 -6 -70 49 l-20 23 45 -7 c25
-4 50 -11 55 -15z m293 -1 c7 -12 12 -22 10 -22 -2 -1 -14 -8 -27 -15 -17 -10
-26 -11 -35 -2 -8 8 -7 13 4 20 8 5 18 6 22 4 16 -10 8 9 -9 22 -17 13 -17 13
2 14 11 0 26 -9 33 -21z m-960 -50 c-5 -16 -14 -31 -18 -34 -14 -9 -19 24 -8
55 8 24 13 28 23 20 10 -9 11 -18 3 -41z m764 9 c-7 -7 -12 -16 -12 -21 0 -5
8 1 18 13 18 22 52 20 52 -4 0 -21 -26 -50 -34 -38 -3 6 -2 13 4 17 5 3 10 11
10 17 0 6 -8 2 -17 -9 -13 -14 -24 -18 -38 -13 -11 4 -24 5 -28 3 -5 -3 -7 3
-5 13 2 10 14 24 28 31 28 14 40 9 22 -9z m-526 -31 c4 -17 7 -36 6 -41 -2 -4
2 -13 7 -20 5 -6 17 -33 26 -59 17 -52 11 -82 -11 -52 -11 15 -11 21 -1 34 10
12 9 14 -5 8 -13 -4 -18 1 -23 23 -4 16 -4 34 -1 39 3 5 0 11 -8 14 -7 3 -16
20 -18 39 -10 63 14 76 28 15z m369 33 c4 -6 1 -18 -6 -26 -10 -12 -14 -12
-20 -2 -5 7 -9 19 -9 26 0 15 26 16 35 2z m105 0 c0 -3 -7 -15 -16 -26 -15
-19 -16 -19 -9 1 5 16 4 18 -6 8 -20 -20 -34 -15 -16 5 16 18 47 26 47 12z
m-790 -10 c0 -5 -4 -12 -10 -15 -5 -3 -10 -12 -10 -18 0 -7 8 -2 18 11 24 31
35 17 16 -20 -13 -26 -17 -28 -32 -16 -9 7 -20 17 -23 21 -3 5 -15 -6 -25 -23
-16 -27 -26 -33 -62 -35 -24 -2 -40 1 -36 6 3 5 12 9 20 9 8 0 13 4 12 9 -4
13 87 76 111 78 12 1 21 -2 21 -7z m226 -86 c-9 -22 -24 -16 -34 14 -7 20 -5
34 7 55 l16 28 8 -41 c5 -23 6 -48 3 -56z m757 82 c6 -15 -19 -43 -29 -33 -8
8 5 47 16 47 4 0 10 -6 13 -14z m62 -26 c-3 -5 2 -10 10 -14 16 -6 20 -32 6
-40 -13 -9 -53 64 -46 83 6 14 8 14 20 -3 8 -10 12 -22 10 -26z m-943 -36 c-7
-14 -17 -22 -22 -19 -14 9 -13 41 3 65 12 20 12 20 21 0 6 -13 5 -29 -2 -46z
m542 50 c7 -18 -1 -37 -13 -29 -5 2 -11 14 -14 25 -6 24 18 28 27 4z m66 -3
c0 -10 48 -25 70 -22 12 2 13 0 3 -10 -7 -7 -13 -18 -13 -23 0 -6 8 1 18 17
24 35 37 23 15 -14 -13 -22 -20 -26 -39 -19 -12 5 -25 6 -29 2 -4 -4 -5 6 -2
23 4 26 3 27 -8 12 -15 -21 -29 -22 -21 -1 3 8 2 12 -4 9 -18 -11 -32 5 -19
21 13 16 29 19 29 5z m231 -58 c-12 -25 -14 -26 -23 -9 -7 12 -7 21 1 29 6 6
11 15 11 20 0 17 -39 -39 -45 -66 -4 -15 -13 -27 -21 -27 -8 0 -14 3 -14 6 0
8 22 48 29 54 4 3 12 18 19 34 l13 29 21 -21 c19 -19 20 -24 9 -49z m69 33 c0
-8 -6 -19 -14 -25 -18 -15 -31 15 -15 35 13 16 29 10 29 -10z m-969 -32 c-8
-18 -15 -24 -22 -17 -6 6 -6 19 1 38 8 21 14 25 22 17 9 -9 8 -18 -1 -38z
m244 6 c4 -16 1 -39 -6 -52 -12 -23 -13 -23 -21 11 -10 37 -3 85 12 76 4 -3
11 -18 15 -35z m395 -1 c0 -12 -81 -50 -92 -42 -14 8 12 23 41 23 18 0 21 3
12 13 -15 19 7 41 26 26 7 -7 13 -15 13 -20z m155 9 c-7 -23 -7 -23 8 -3 9 11
18 17 22 14 8 -9 -53 -129 -66 -129 -5 0 -2 15 8 33 23 43 24 57 6 50 -13 -5
-13 -1 1 26 19 36 30 41 21 9z m-878 -18 c-6 -11 -18 -20 -25 -20 -9 0 -8 6 4
25 19 29 40 24 21 -5z m169 -57 l-14 -28 -7 28 c-4 15 -4 39 0 55 l7 27 14
-27 c13 -24 13 -32 0 -55z m63 41 c7 -26 7 -43 -1 -57 -10 -20 -11 -20 -24 5
-10 20 -11 32 -1 57 6 17 12 31 14 31 1 0 7 -16 12 -36z m-199 14 c0 -7 -7
-21 -14 -31 -18 -23 -31 -5 -16 23 12 22 30 27 30 8z m80 -8 c10 -20 -5 -60
-22 -60 -9 0 -10 42 -2 64 8 21 11 20 24 -4z m905 10 c3 -5 1 -19 -5 -31 -15
-27 -35 -10 -25 20 7 22 20 27 30 11z m62 -6 c3 -8 -1 -22 -10 -31 -13 -14
-16 -13 -22 6 -11 35 19 59 32 25z m88 -5 c4 -11 4 -24 0 -27 -9 -9 -36 28
-29 39 9 15 22 10 29 -12z m-420 1 c-4 -6 1 -7 11 -3 14 5 16 3 11 -12 -6 -13
-4 -15 5 -8 7 6 21 10 31 10 13 0 16 -6 11 -21 -6 -21 -6 -21 9 -1 21 27 30
15 14 -18 -12 -27 -27 -36 -27 -17 0 5 -7 7 -16 3 -14 -5 -15 -3 -4 16 6 13 9
25 7 28 -3 2 -8 -5 -12 -16 -8 -27 -32 -27 -40 -1 -3 11 -13 20 -21 20 -15 0
-19 12 -7 23 10 11 35 8 28 -3z m-453 -39 c2 -16 -1 -36 -8 -45 -10 -14 -13
-13 -24 13 -9 22 -9 34 0 50 14 27 26 20 32 -18z m659 0 c-7 -12 -16 -21 -22
-21 -6 0 -8 -4 -5 -8 7 -12 -24 -53 -35 -46 -5 3 -1 18 11 33 11 16 24 41 30
56 8 20 14 25 21 18 8 -8 7 -17 0 -32z m183 22 c9 -23 -12 -43 -24 -23 -5 8
-10 21 -10 28 0 18 27 15 34 -5z m-1199 -15 c-5 -20 -4 -21 5 -5 11 17 30 23
30 10 -1 -23 -19 -34 -44 -27 -26 6 -26 7 -10 25 22 25 27 24 19 -3z m120 12
c6 -10 -15 -50 -27 -50 -10 0 -11 44 -1 53 9 10 21 9 28 -3z m984 -41 c-5 -11
-14 -19 -18 -19 -16 0 -21 31 -8 51 11 18 13 18 24 3 9 -12 9 -22 2 -35z m302
29 c-11 -11 -17 -26 -14 -31 4 -6 0 -8 -10 -4 -10 3 -17 2 -17 -3 0 -6 8 -10
18 -10 10 0 22 -4 28 -9 5 -5 18 -5 29 -1 17 8 16 9 -8 9 -21 1 -28 5 -25 18
2 9 9 18 16 21 7 2 10 -2 6 -12 -7 -19 7 -21 25 -3 11 10 12 9 6 -1 -4 -8 0
-21 10 -32 17 -19 16 -19 -40 -18 -49 2 -59 5 -76 30 -11 15 -26 25 -33 22 -8
-3 -17 0 -21 6 -11 18 0 22 29 11 17 -7 26 -7 26 -1 0 6 9 10 19 10 11 0 23 5
26 10 3 6 11 10 16 10 5 0 1 -10 -10 -22z m-868 -10 c8 -30 -2 -37 -19 -14
-18 25 -18 36 0 36 7 0 16 -10 19 -22z m32 1 c4 -11 4 -23 0 -27 -7 -7 -25 17
-25 36 0 20 18 14 25 -9z m62 4 c7 -19 -23 -51 -36 -38 -5 6 -12 20 -15 31 -6
18 -2 22 20 22 14 0 28 -7 31 -15z m178 -35 c4 -12 14 -16 36 -13 16 2 29 -1
29 -6 0 -5 3 -8 8 -6 11 3 14 -6 6 -26 -5 -14 -9 -15 -20 -6 -8 6 -14 18 -14
25 0 8 -4 14 -10 14 -10 0 -3 -27 13 -48 7 -9 6 -11 -7 -6 -18 7 -21 -4 -6
-26 8 -12 12 -13 19 -2 6 11 10 10 15 -3 10 -26 7 -37 -6 -29 -7 5 -3 -5 10
-20 12 -16 22 -40 21 -55 l-1 -26 -10 28 c-5 15 -13 27 -18 27 -4 0 -11 12
-14 26 -4 15 -10 24 -13 21 -6 -7 54 -134 68 -142 5 -4 9 6 9 22 0 22 -2 25
-10 13 -13 -20 -13 -4 1 21 8 15 7 24 -2 35 -6 8 -9 17 -5 21 3 3 6 1 6 -5 0
-7 7 -12 15 -12 9 0 12 6 9 18 -5 14 -3 14 10 -3 14 -17 15 -20 2 -25 -11 -3
-12 -9 -6 -20 7 -11 10 -11 10 -2 0 21 17 5 28 -28 12 -32 -3 -44 -16 -12 -4
9 -13 18 -21 20 -10 2 -12 -5 -8 -33 3 -21 2 -33 -4 -30 -11 7 -11 -1 -2 -33
4 -15 8 -19 13 -12 4 7 12 -8 19 -35 14 -55 6 -74 -10 -27 -13 38 -29 42 -29
6 0 -14 4 -23 10 -19 16 10 25 -25 12 -46 -17 -27 -15 -29 19 -19 17 5 39 5
52 0 12 -5 16 -9 9 -9 -15 -1 -6 -21 9 -21 6 0 8 4 5 8 -2 4 -1 14 5 22 7 13
9 12 9 -1 0 -22 26 -31 40 -14 6 7 20 10 32 7 12 -3 19 -1 15 4 -4 8 48 15
130 17 12 1 20 4 17 8 -2 4 4 7 13 7 10 0 25 1 33 3 10 3 15 -4 16 -22 1 -18
-4 -26 -15 -25 -10 1 -15 -6 -13 -16 2 -11 -3 -18 -14 -18 -11 0 -14 -5 -10
-17 4 -10 4 -14 0 -10 -4 4 -13 2 -21 -4 -7 -6 -13 -8 -13 -3 0 5 -4 2 -10 -6
-12 -19 -22 -8 -14 14 4 9 13 15 20 12 8 -3 14 -2 14 3 0 4 10 13 23 19 12 6
17 11 10 11 -7 1 -10 8 -6 18 5 13 2 15 -18 10 -13 -4 -49 -7 -79 -8 -40 -1
-48 -3 -30 -8 26 -8 71 -5 103 5 16 5 17 3 8 -15 -7 -12 -20 -21 -29 -21 -10
0 -22 -12 -29 -30 -6 -16 -17 -30 -23 -30 -9 0 -7 8 4 25 21 31 22 52 2 36
-10 -8 -16 -9 -21 -1 -3 6 -10 8 -15 5 -5 -3 -20 -1 -35 5 -20 8 -30 7 -42 -5
-12 -12 -18 -13 -29 -4 -11 9 -18 8 -30 -2 -14 -11 -18 -11 -29 5 -14 18 -45
19 -57 1 -5 -6 -12 -5 -20 3 -9 9 -9 12 1 12 7 0 10 4 7 9 -3 4 -29 7 -58 7
-58 -2 -92 9 -82 26 4 6 1 9 -7 6 -8 -3 -13 -11 -11 -17 1 -6 -2 -11 -8 -11
-14 0 -64 23 -78 37 -7 7 -21 13 -30 14 -10 0 -12 3 -5 5 7 3 9 12 6 20 -3 8
0 14 6 14 6 0 11 -4 11 -10 0 -5 4 -10 10 -10 5 0 7 7 4 15 -7 18 12 20 19 3
4 -10 8 -9 16 2 10 14 12 13 15 -10 0 -6 8 -15 16 -20 11 -7 11 -10 2 -10 -7
0 -11 -4 -8 -9 4 -5 0 -12 -6 -14 -10 -4 -10 -6 0 -6 7 -1 15 6 18 14 7 16 54
21 54 5 0 -5 7 -7 15 -4 8 4 22 0 31 -7 13 -10 17 -10 25 2 14 23 11 28 -16
23 -17 -3 -25 0 -25 10 0 8 -5 18 -12 22 -7 4 -8 3 -4 -4 4 -7 1 -12 -10 -12
-13 0 -15 6 -10 30 4 22 2 30 -9 30 -8 0 -12 -6 -9 -13 5 -15 -33 -54 -43 -44
-3 4 -1 7 5 7 7 0 12 5 12 10 0 6 -3 9 -7 9 -5 -1 -10 0 -13 1 -20 8 -61 5
-99 -7 -28 -8 -47 -10 -49 -4 -2 6 -10 7 -18 4 -8 -3 -14 -1 -14 4 0 12 59 33
65 23 3 -5 -1 -11 -7 -14 -7 -3 3 -2 22 2 19 3 57 6 83 6 36 -1 47 2 43 12 -3
8 -1 14 5 14 6 0 8 9 4 21 -5 15 -4 19 4 15 19 -12 12 1 -18 33 -23 24 -28 27
-24 11 7 -27 -1 -25 -21 5 -16 25 -16 25 12 25 20 0 32 -7 40 -22 6 -13 11
-17 11 -10 1 22 21 2 21 -21 0 -17 2 -19 10 -7 7 11 11 9 20 -14 14 -37 7 -58
-9 -28 -14 25 -31 29 -31 6 0 -8 4 -13 10 -9 5 3 16 -8 25 -25 18 -34 30 -40
22 -10 -3 11 -1 23 4 26 5 3 9 14 9 25 0 11 -4 18 -10 14 -5 -3 -14 13 -20 35
-6 23 -14 48 -17 57 -4 10 -2 14 5 10 6 -4 13 -21 17 -37 4 -17 11 -28 15 -25
5 3 14 -11 19 -32 14 -48 14 -66 1 -58 -5 3 -10 2 -10 -4 0 -5 4 -12 10 -16 5
-3 6 -13 3 -22 -4 -10 -2 -14 4 -10 12 8 23 -14 23 -44 0 -16 2 -18 14 -7 8 7
10 15 6 18 -13 8 -37 74 -33 88 3 6 10 9 15 5 8 -4 9 2 5 18 -4 13 -7 31 -7
39 0 12 -2 13 -9 1 -7 -10 -11 -8 -16 10 -4 13 -16 35 -26 48 -10 13 -16 28
-12 34 3 6 1 7 -6 3 -7 -5 -17 5 -26 26 -19 43 -19 14 0 -47 16 -54 13 -69 -5
-35 -8 15 -15 19 -19 11 -4 -6 -14 12 -22 39 -15 49 -7 71 11 28 14 -36 11 2
-4 54 -8 25 -12 49 -9 52 4 3 2 6 -4 6 -6 0 -16 14 -22 30 -8 23 -7 30 3 30
15 0 32 -34 42 -85 4 -22 10 -32 14 -25 9 15 15 5 25 -38 4 -18 9 -32 11 -29
2 2 -1 28 -7 57 -7 31 -14 48 -19 40 -5 -8 -11 -3 -18 17 -5 15 -13 36 -17 46
-6 14 -3 16 11 11 12 -4 9 2 -8 16 -37 29 -39 59 -3 33 13 -10 27 -26 30 -35z
m352 -6 c-9 -11 -13 -11 -23 3 -11 15 -12 12 -11 -18 1 -19 5 -33 8 -31 4 2
12 -10 19 -26 10 -24 10 -33 0 -45 -16 -19 -30 -4 -30 33 0 12 -4 22 -9 22
-23 0 -19 47 6 83 l27 38 12 -23 c9 -17 9 -26 1 -36z m-1110 11 c-21 -22 -32
-11 -17 17 9 16 15 19 23 11 8 -8 7 -16 -6 -28z m360 -30 c-13 -14 -16 -13
-26 6 -9 16 -9 26 0 43 12 21 12 21 26 -6 13 -25 13 -30 0 -43z m100 23 c-6
-19 -25 -17 -32 3 -10 31 5 48 22 25 7 -10 12 -23 10 -28z m183 35 c0 -11 -19
-26 -45 -35 -17 -6 -17 -4 4 18 25 26 41 33 41 17z m54 -7 c4 -9 4 -19 1 -22
-6 -6 -35 18 -35 29 0 16 28 10 34 -7z m301 6 c9 -15 -15 -52 -30 -47 -8 4
-11 -1 -8 -12 4 -18 -23 -49 -33 -38 -7 7 48 107 58 107 4 0 10 -4 13 -10z
m215 -31 c0 -19 -20 -18 -30 2 -7 11 -14 18 -17 16 -2 -3 0 -14 6 -25 8 -15 7
-23 -3 -31 -10 -8 -16 -5 -24 15 -16 33 -16 31 16 48 24 13 28 13 40 -1 6 -9
12 -20 12 -24z m-1060 -4 c0 -29 -9 -55 -20 -55 -14 0 -21 50 -10 70 14 25 30
17 30 -15z m56 -40 c-4 -14 -10 -25 -15 -25 -16 0 -23 58 -10 82 l12 23 10
-28 c5 -15 6 -39 3 -52z m692 40 c-6 -14 -15 -25 -20 -25 -5 0 -7 -4 -4 -9 3
-5 -1 -14 -9 -21 -14 -12 -10 -40 6 -40 17 0 51 -38 41 -44 -14 -8 -43 4 -36
15 3 5 0 9 -5 9 -6 0 -11 -7 -11 -15 0 -8 -4 -15 -10 -15 -14 0 -13 13 2 28 9
9 8 15 -5 24 -15 12 -15 16 -2 38 8 14 22 39 31 57 20 37 39 35 22 -2z m-808
-5 c0 -24 -20 -37 -30 -19 -10 16 7 52 21 44 5 -4 9 -15 9 -25z m575 20 c10
-16 -16 -43 -28 -31 -11 11 -2 41 12 41 5 0 13 -5 16 -10z m-635 -24 c0 -8 -6
-19 -14 -25 -18 -15 -31 15 -15 35 13 16 29 10 29 -10z m240 -23 c0 -54 -25
-71 -35 -24 -8 36 12 82 26 60 5 -8 9 -24 9 -36z m-330 30 c0 -13 -50 -56 -57
-50 -3 4 5 18 18 32 24 25 39 32 39 18z m1075 -32 c-3 -12 -11 -21 -16 -21
-16 0 -22 29 -9 46 17 20 34 3 25 -25z m274 20 c9 -16 6 -20 -17 -26 l-27 -7
24 -9 c17 -7 22 -15 18 -30 -4 -14 -2 -19 8 -15 18 6 28 -23 14 -40 -9 -11
-18 1 -45 55 -19 38 -34 72 -34 74 0 5 20 12 42 16 4 0 12 -8 17 -18z m-1319
-5 c0 -18 -17 -29 -30 -21 -8 5 -7 11 1 21 15 18 29 18 29 0z m355 -53 c-3
-13 -9 -23 -14 -23 -15 0 -22 50 -10 72 l12 22 9 -24 c5 -14 6 -35 3 -47z
m215 50 c0 -11 -8 -14 -30 -11 -16 2 -31 0 -33 -6 -4 -11 -27 1 -27 14 0 10
21 16 63 17 18 1 27 -3 27 -14z m88 -21 c-7 -9 -17 -20 -22 -24 -5 -3 -2 -14
7 -23 10 -9 14 -21 11 -27 -4 -6 -2 -8 4 -4 13 8 26 -29 16 -45 -10 -17 -57
38 -50 59 5 15 5 15 -8 0 -7 -10 -23 -18 -35 -18 -11 0 -21 -5 -21 -11 0 -6 7
-9 15 -5 8 3 15 0 16 -7 0 -9 2 -9 6 1 2 6 9 12 14 12 14 0 10 -26 -6 -40 -12
-10 -13 -16 -4 -26 15 -18 -8 -49 -25 -35 -14 12 -28 12 -43 -1 -10 -8 -13 -6
-13 6 0 9 3 16 8 16 4 0 18 10 32 21 21 17 22 19 3 10 -29 -14 -40 -14 -25 1
7 7 12 21 12 32 0 12 7 29 15 39 7 11 11 25 9 32 -3 7 9 26 26 44 26 26 35 29
51 20 17 -9 18 -13 7 -27z m506 13 c7 -27 1 -45 -14 -45 -12 0 -21 31 -15 51
9 27 22 23 29 -6z m-1330 -1 c26 -9 44 -20 39 -25 -12 -12 -54 1 -46 14 3 6 1
7 -6 3 -15 -10 -53 3 -46 15 8 11 3 12 59 -7z m876 4 c0 -7 6 -25 14 -39 20
-38 28 -79 16 -79 -6 0 -14 8 -17 17 -6 15 -7 14 -13 -3 -4 -11 -2 -23 5 -29
7 -5 15 -21 18 -35 6 -23 3 -26 -20 -25 -14 0 -31 8 -37 17 -15 24 3 37 20 14
21 -29 17 -1 -6 44 -19 37 -14 60 10 45 15 -9 11 27 -5 49 -14 19 -12 36 6 36
5 0 9 -6 9 -12z m545 -8 c3 -11 3 -24 0 -30 -3 -5 0 -10 8 -10 18 0 31 -30 18
-43 -12 -12 -31 0 -31 21 -1 9 -7 28 -16 42 l-15 25 6 -30 c3 -16 1 -37 -4
-44 -8 -12 -12 -10 -22 12 -11 24 -10 30 11 52 28 30 37 31 45 5z m-1234 -33
c-18 -18 -38 8 -21 28 12 15 14 15 23 0 6 -11 5 -21 -2 -28z m63 27 c8 -20
-12 -47 -27 -37 -5 3 -7 1 -4 -4 4 -6 0 -16 -8 -23 -12 -10 -16 -9 -22 5 -4
11 0 22 8 29 9 6 18 19 22 29 8 21 23 22 31 1z m59 -6 c8 -29 -13 -56 -25 -33
-10 17 -2 55 12 55 4 0 10 -10 13 -22z m265 -35 c-15 -14 -17 -13 -23 6 -4 13
-1 28 6 38 12 13 14 13 23 -6 7 -16 5 -26 -6 -38z m-198 1 c0 -6 -6 -17 -14
-23 -11 -9 -15 -7 -20 13 -3 13 -3 32 1 42 6 16 7 16 20 -2 7 -10 13 -23 13
-30z m280 28 c32 -20 30 -32 -4 -32 -31 0 -50 16 -43 34 8 20 10 20 47 -2z
m580 -2 c8 -14 7 -26 -1 -42 -10 -19 -12 -20 -21 -4 -9 16 -4 66 7 66 2 0 9
-9 15 -20z m-532 -17 c1 -14 -4 -36 -12 -48 -8 -12 -13 -31 -12 -41 2 -10 -3
-26 -11 -35 -7 -9 -13 -21 -11 -27 2 -5 1 -9 -2 -8 -3 0 -18 -9 -34 -22 -16
-12 -31 -21 -33 -18 -6 5 19 56 26 53 3 -2 17 7 31 21 15 14 19 22 10 20 -8
-2 -17 -6 -20 -9 -3 -4 -16 -10 -30 -14 -20 -6 -23 -5 -12 6 6 7 12 18 12 23
0 6 -8 -1 -17 -14 -10 -14 -18 -28 -18 -32 0 -3 -3 -10 -7 -14 -5 -4 -8 -12
-8 -17 0 -5 9 1 21 14 18 21 20 21 14 4 -4 -11 -10 -28 -12 -38 -4 -14 -8 -15
-19 -6 -8 6 -14 8 -14 3 0 -5 -4 -2 -9 5 -7 10 -4 23 8 40 9 15 22 38 28 52 8
18 20 27 37 28 48 3 55 4 51 11 -2 4 -17 5 -32 3 -15 -2 -36 2 -45 9 -15 11
-15 15 -3 32 12 16 16 17 35 3 17 -12 29 -13 51 -5 32 11 35 18 17 36 -9 9 -9
12 3 12 9 0 16 -11 17 -27z m146 10 c8 -21 -10 -41 -24 -27 -11 11 -3 44 10
44 4 0 11 -8 14 -17z m345 -31 c11 -31 12 -45 4 -53 -8 -8 -14 -5 -24 12 -9
17 -9 24 0 27 6 2 11 9 11 15 0 8 -3 8 -12 -1 -19 -19 -40 5 -27 30 15 28 30
18 48 -30z m324 34 c3 -8 1 -17 -6 -20 -7 -2 -5 -5 4 -5 25 -1 43 -27 25 -34
-10 -4 -22 6 -35 27 -12 18 -21 36 -21 40 0 12 28 6 33 -8z m-1518 -8 c19 -9
28 -9 37 0 15 15 28 15 28 2 0 -5 -7 -10 -15 -10 -8 0 -15 -4 -15 -10 0 -5 3
-9 8 -7 4 1 8 -2 10 -8 7 -19 -14 -15 -38 7 -14 13 -25 21 -25 19 0 -3 -9 0
-20 7 -26 15 -3 15 30 0z m435 -36 c0 -7 -6 -20 -14 -27 -12 -12 -15 -12 -20
1 -8 21 -8 59 1 68 9 9 33 -22 33 -42z m1528 31 l27 -6 -28 -8 c-16 -4 -38 -4
-50 1 -12 5 -16 9 -9 9 7 1 10 6 6 13 -5 8 -2 9 10 5 10 -4 30 -10 44 -14z
m-833 -13 c22 -24 13 -59 -10 -40 -11 9 -12 16 -5 26 9 10 7 11 -9 7 -20 -5
-28 6 -14 20 10 11 19 8 38 -13z m-1242 -17 c29 -14 78 -14 88 1 8 10 49 -2
49 -15 0 -5 -7 -9 -16 -9 -9 0 -12 5 -8 12 5 7 3 8 -5 3 -9 -5 -9 -11 -3 -17
7 -7 23 -6 48 2 28 10 39 10 42 1 6 -17 26 -13 56 10 20 16 30 19 39 10 8 -8
8 -14 -1 -23 -10 -10 -15 -10 -22 2 -8 13 -10 13 -10 -1 0 -10 -15 -20 -41
-28 -43 -13 -64 -7 -39 10 12 9 12 10 -3 5 -10 -3 -24 -6 -30 -6 -6 0 -1 -7
11 -16 16 -11 34 -14 57 -10 19 4 36 2 40 -4 6 -9 -19 -14 -57 -11 -20 2 -32
-15 -17 -25 8 -4 9 -3 5 4 -5 8 8 11 44 9 27 -1 50 1 50 5 0 14 28 8 34 -7 4
-12 -6 -15 -57 -17 l-62 -2 70 -5 c39 -3 72 -3 73 2 6 13 21 7 32 -13 10 -19
9 -20 -25 -17 -26 3 -33 1 -26 -6 17 -17 13 -22 -15 -24 -30 -1 -46 -20 -40
-45 2 -10 -2 -16 -13 -16 -9 0 -29 -2 -46 -6 -24 -6 -27 -5 -15 4 12 10 11 11
-8 7 -13 -3 -20 -1 -16 5 4 6 0 14 -7 19 -10 6 -6 9 14 9 19 0 26 -4 22 -12
-4 -7 5 1 19 17 14 17 26 35 26 40 -1 6 -9 0 -19 -12 -19 -23 -38 -32 -26 -13
8 12 -7 13 -20 1 -15 -13 -77 -32 -70 -21 4 6 14 10 23 10 15 0 15 2 2 10 -8
5 -10 10 -5 10 6 0 11 9 12 19 1 16 -7 21 -45 27 -36 5 -42 9 -27 14 18 7 17
8 -7 15 -28 7 -39 25 -15 25 6 0 4 5 -7 11 -13 8 -24 8 -40 0 -19 -9 -18 -10
7 -5 22 5 26 3 21 -10 -7 -17 -19 -16 -81 10 -27 11 -33 11 -33 0 0 -8 -7 -19
-15 -26 -13 -11 -18 -11 -28 0 -8 9 -8 11 -1 7 7 -4 14 -1 17 7 6 16 -1 26
-17 26 -6 0 -4 -5 4 -10 11 -7 9 -8 -11 -6 -13 1 -30 6 -37 10 -7 4 -22 5 -35
2 -12 -3 -16 -3 -9 0 6 3 10 10 6 15 -7 12 -2 11 32 -1 29 -11 68 -4 59 11 -8
12 -5 11 34 -2 17 -6 31 -15 31 -20 0 -15 38 -10 48 6 7 13 14 14 37 5 16 -6
40 -8 53 -5 15 4 21 2 17 -5 -3 -5 -13 -10 -22 -10 -9 0 -14 -2 -11 -5 9 -9
58 6 52 16 -3 5 -14 14 -26 20 -15 8 -19 8 -14 0 4 -6 0 -11 -9 -11 -9 0 -13
4 -10 10 3 5 0 8 -7 5 -7 -3 -40 9 -73 25 -38 19 -49 28 -30 24 17 -4 42 -13
58 -21z m228 11 c10 -13 10 -17 -1 -24 -19 -12 -33 -1 -20 15 9 11 7 12 -9 8
-12 -3 -21 -1 -21 6 0 17 36 13 51 -5z m158 -3 c8 -14 7 -22 -4 -31 -11 -9
-16 -7 -25 10 -11 21 -6 40 10 40 5 0 14 -9 19 -19z m216 -1 c8 -26 -14 -68
-26 -49 -5 8 -9 23 -9 35 0 37 25 47 35 14z m55 -30 c-6 -11 -15 -18 -21 -15
-13 9 -11 39 3 53 18 18 32 -12 18 -38z m810 30 c14 -25 -6 -72 -21 -49 -12
19 -11 69 1 69 5 0 14 -9 20 -20z m-1021 -56 c-11 -13 -15 -12 -27 11 -11 21
-11 29 -1 41 11 13 15 12 27 -11 11 -21 11 -29 1 -41z m931 4 c0 -37 -15 -43
-29 -12 -13 30 4 78 20 53 5 -8 9 -26 9 -41z m150 5 c0 -29 -17 -38 -25 -13
-9 28 4 68 16 49 5 -8 9 -24 9 -36z m213 29 c-13 -2 -23 -8 -23 -13 0 -5 -7
-9 -15 -9 -8 0 -15 6 -15 14 0 16 35 25 60 17 10 -4 8 -7 -7 -9z m-1387 -31
c-10 -16 -23 -14 -30 5 -9 25 4 38 21 21 9 -8 12 -20 9 -26z m150 -29 c-13
-14 -16 -13 -27 11 -10 21 -9 30 1 42 12 15 15 14 28 -10 12 -24 12 -29 -2
-43z m1288 48 c-10 -4 -22 -7 -25 -6 -4 0 -16 -7 -27 -17 -12 -11 -22 -14 -26
-8 -7 11 74 51 88 43 5 -3 1 -8 -10 -12z m68 6 c8 -7 24 -17 36 -20 12 -4 20
-12 16 -17 -3 -5 -15 -3 -27 6 -12 8 -28 15 -37 14 -10 0 -11 -2 -2 -6 6 -2
10 -9 7 -14 -6 -9 -45 11 -45 23 0 5 8 8 18 8 14 0 15 2 2 10 -13 8 -13 10 2
10 9 0 23 -6 30 -14z m-1181 -42 c-7 -17 -15 -24 -21 -18 -7 7 -5 20 2 37 8
16 17 22 22 17 6 -6 5 -20 -3 -36z m759 -4 c0 -14 -4 -32 -10 -40 -7 -11 -11
-9 -19 13 -14 36 -14 50 1 65 15 15 28 -2 28 -38z m762 35 l27 -7 -15 -37 c-9
-20 -17 -42 -17 -48 0 -13 -23 -18 -60 -15 -10 1 -15 -3 -12 -8 3 -6 -1 -10
-9 -10 -18 0 -21 11 -5 27 7 7 1 12 -21 17 -18 3 -36 4 -40 1 -4 -3 -27 2 -50
10 -51 18 -53 18 -44 4 4 -8 0 -9 -15 -4 -12 4 -20 2 -19 -3 3 -10 -1 -12 -27
-12 -21 0 -19 20 3 21 12 0 10 3 -7 10 -13 5 -26 7 -29 4 -3 -3 0 -5 6 -5 8 0
9 -7 2 -26 -12 -32 -12 -34 1 -34 5 0 7 5 4 10 -3 6 3 10 14 10 31 0 34 -17 3
-26 -15 -4 -31 -6 -35 -5 -5 1 -6 -3 -3 -8 4 -5 2 -11 -2 -13 -5 -1 -12 -16
-16 -33 -4 -19 -3 -25 2 -16 6 8 12 9 16 3 3 -5 -1 -15 -8 -22 -12 -9 -17 -7
-26 9 -6 12 -7 21 -1 21 5 0 8 8 7 17 -3 18 -36 28 -36 11 0 -6 7 -8 15 -4 13
5 14 2 4 -15 -6 -11 -8 -26 -6 -34 4 -8 -3 -12 -18 -12 -22 0 -22 0 -3 19 11
11 17 22 14 26 -3 3 -19 -9 -34 -26 -27 -30 -51 -44 -37 -22 3 6 -1 7 -9 4 -9
-3 -14 -10 -11 -14 3 -5 1 -11 -5 -15 -5 -3 -10 -1 -10 4 0 6 -13 11 -30 11
-16 0 -30 3 -30 6 0 14 22 44 32 44 9 0 9 -3 0 -12 -7 -7 -12 -17 -12 -23 0
-5 7 -2 14 8 8 10 18 17 22 16 26 -4 64 2 59 10 -3 5 5 17 17 25 l22 16 -29 0
c-38 0 -64 15 -50 29 7 7 26 6 59 -4 57 -17 76 -19 76 -6 0 6 -8 9 -17 9 -25
-2 -93 22 -93 32 0 14 22 24 29 13 3 -5 25 -16 49 -25 36 -14 42 -14 42 -2 0
8 -6 14 -12 13 -7 -1 -35 8 -63 20 -42 19 -47 24 -32 32 20 12 40 3 30 -14 -3
-7 3 -4 14 6 23 20 40 22 45 6 3 -8 10 -8 26 2 19 12 24 12 32 -1 6 -10 27
-14 74 -14 35 0 63 -3 61 -6 -2 -3 13 -6 34 -7 33 -1 34 0 11 9 -14 6 -33 14
-42 19 -23 12 -31 11 -23 -1 3 -5 -1 -10 -9 -10 -18 0 -19 2 -10 24 6 17 34
22 34 7 0 -5 12 -14 28 -19 15 -5 36 -13 46 -18 15 -6 17 -4 11 6 -6 10 -2 12
16 7 13 -4 29 -7 36 -7 6 0 13 -6 16 -12 2 -7 3 -5 1 5 -2 13 2 17 12 13 8 -3
13 -2 9 3 -3 5 0 11 6 13 6 2 -2 9 -17 16 -28 12 -28 12 -9 -4 20 -17 20 -17
0 -10 -11 4 -32 10 -48 13 -15 3 -30 9 -32 14 -6 9 66 5 107 -6z m-1785 -39
c-6 -19 -25 -17 -32 3 -10 31 5 48 22 25 7 -10 12 -23 10 -28z m152 22 c9 -23
-2 -58 -18 -58 -14 0 -21 42 -10 62 13 24 18 23 28 -4z m718 -22 c-4 -9 -10
-16 -16 -16 -11 0 -22 40 -14 53 9 14 36 -20 30 -37z m302 25 c8 -14 7 -22 -4
-31 -11 -9 -16 -7 -25 11 -10 17 -9 23 1 30 18 11 17 12 28 -10z m-1266 -6 c7
-16 -8 -29 -23 -20 -15 9 -12 35 4 35 8 0 16 -7 19 -15z m307 -14 c0 -10 -6
-24 -14 -30 -11 -10 -16 -8 -21 9 -7 22 11 53 26 44 5 -3 9 -13 9 -23z m865
-38 c-3 -13 -9 -23 -14 -23 -15 0 -22 50 -10 72 l12 22 9 -24 c5 -14 6 -35 3
-47z m-250 36 c4 -11 4 -23 0 -27 -7 -7 -25 17 -25 36 0 20 18 14 25 -9z m95
-4 c9 -24 4 -55 -9 -55 -14 0 -29 58 -18 69 15 15 16 14 27 -14z m313 11 c3
-7 1 -18 -5 -24 -13 -13 -43 12 -33 28 9 15 32 12 38 -4z m-1273 -15 c7 -14 7
-22 -1 -27 -13 -8 -41 24 -33 37 9 15 23 10 34 -10z m93 -3 c6 -23 1 -38 -13
-38 -12 0 -23 37 -15 50 10 16 22 11 28 -12z m447 -13 c-7 -8 -16 -15 -21 -15
-13 0 -11 24 3 38 18 18 35 -3 18 -23z m805 15 c16 -18 16 -20 2 -26 -9 -3
-19 -14 -22 -25 -7 -21 -35 -26 -35 -7 0 7 11 21 26 33 l25 20 -24 0 c-14 0
-23 -5 -20 -11 6 -17 -23 -38 -33 -23 -4 7 4 22 20 36 33 28 38 28 61 3z
m-170 -25 c0 -16 -5 -30 -11 -32 -13 -4 -25 33 -17 53 9 24 28 10 28 -21z
m-905 -20 c-7 -14 -17 -25 -22 -25 -12 0 -10 27 4 50 19 29 35 7 18 -25z m755
15 c4 -20 2 -37 -6 -47 -12 -13 -14 -12 -21 13 -8 31 -2 64 12 64 5 0 11 -14
15 -30z m210 20 c8 -13 -3 -50 -15 -50 -12 0 -23 37 -15 50 3 5 10 10 15 10 5
0 12 -5 15 -10z m-1176 -22 c11 -28 -5 -50 -19 -28 -13 20 -13 50 0 50 6 0 15
-10 19 -22z m96 2 c7 -21 0 -40 -15 -40 -12 0 -23 37 -15 50 10 16 23 12 30
-10z m776 -13 c5 -17 2 -30 -6 -37 -11 -9 -16 -5 -23 22 -5 18 -7 37 -5 41 9
15 27 1 34 -26z m-715 9 c3 -8 0 -25 -7 -38 l-12 -23 -10 22 c-11 24 -4 53 13
53 6 0 13 -6 16 -14z m349 0 c12 -12 12 -16 0 -26 -11 -9 -16 -7 -24 8 -16 30
1 42 24 18z m518 -13 c3 -15 1 -38 -5 -52 l-10 -26 -12 35 c-8 25 -9 40 -2 53
15 24 23 21 29 -10z m-1048 -29 c15 -25 24 -48 21 -51 -8 -8 -37 18 -33 30 2
6 -5 19 -15 29 -10 10 -16 23 -13 28 9 15 11 13 40 -36z m853 21 c14 -31 15
-45 3 -45 -7 0 -31 51 -31 66 0 14 19 -1 28 -21z m767 3 c7 -7 2 -8 -15 -3
-23 7 -24 7 -10 -11 8 -10 15 -21 17 -23 1 -2 8 8 14 23 15 31 40 36 32 5 -6
-20 -40 -40 -77 -44 -15 -2 -17 3 -13 32 5 26 2 33 -11 33 -15 0 -15 -2 -2
-11 13 -9 12 -10 -2 -5 -10 3 -18 1 -18 -3 0 -5 6 -11 12 -13 10 -4 10 -10 0
-32 -10 -21 -17 -26 -33 -21 -16 5 -19 4 -14 -6 6 -9 4 -11 -8 -6 -9 3 -18 -1
-21 -10 -6 -14 -8 -14 -20 3 -10 13 -11 24 -5 36 9 16 13 17 43 4 32 -13 35
-13 39 5 3 12 0 19 -10 19 -8 0 -12 -4 -9 -9 4 -5 -4 -7 -16 -3 l-22 5 22 8
c12 5 22 15 22 23 0 8 8 17 18 19 23 6 75 -3 87 -15z m-1531 -24 c4 -15 2 -24
-9 -27 -17 -7 -32 34 -20 53 9 14 20 3 29 -26z m862 -52 c-13 -13 -16 -11 -24
19 -6 22 -5 41 1 54 9 18 11 16 24 -20 11 -33 11 -41 -1 -53z m153 27 l-13
-33 -12 29 c-15 38 2 73 25 50 12 -12 12 -19 0 -46z m121 26 c-7 -8 -10 -18
-7 -22 4 -3 9 2 13 11 3 9 10 16 15 16 13 0 11 -24 -3 -38 -9 -9 -16 -8 -30 5
-21 19 -23 34 -6 51 18 18 35 -3 18 -23z m-724 14 c8 -14 -18 -31 -30 -19 -9
9 0 30 14 30 5 0 12 -5 16 -11z m671 -5 c2 -5 -3 -19 -11 -29 -14 -19 -15 -19
-21 -2 -4 9 -4 24 -1 33 6 16 27 15 33 -2z m-1017 -35 c0 -3 -6 -12 -14 -18
-19 -16 -30 2 -21 37 6 26 7 26 21 8 8 -11 14 -23 14 -27z m-108 16 c0 -8 1
-21 2 -27 1 -7 9 -19 19 -26 16 -12 15 -32 -2 -32 -10 0 -51 87 -44 94 11 11
23 6 25 -9z m161 8 c2 -5 -2 -19 -9 -33 -11 -21 -14 -22 -20 -7 -11 29 15 65
29 40z m357 -18 c5 -14 16 -25 24 -25 9 0 20 -9 26 -20 8 -15 8 -20 -1 -20 -6
0 -9 -6 -6 -12 3 -10 -13 -13 -59 -14 -35 0 -64 4 -64 9 0 5 7 7 15 3 8 -3 15
-1 15 5 0 6 7 9 15 5 8 -3 15 -1 15 5 0 7 -10 9 -24 5 -35 -9 -42 11 -10 26
24 11 28 10 42 -10 17 -26 55 -31 45 -6 -5 13 -8 13 -15 2 -9 -13 -18 -4 -20
19 0 5 -9 14 -19 21 -23 16 -25 32 -4 32 9 0 20 -11 25 -25z m248 -18 c7 -18
10 -22 8 -9 -2 12 0 22 5 22 8 0 40 -92 33 -99 -7 -8 -24 12 -25 32 0 21 -1
21 -9 2 -9 -22 -8 -23 -29 44 -20 63 -8 69 17 8z m-468 28 c0 -3 -5 -11 -10
-18 -6 -7 -19 -23 -31 -36 -11 -14 -29 -26 -41 -28 -12 -2 -29 -9 -37 -17 -11
-9 -40 -13 -91 -11 -99 2 -111 5 -75 16 19 5 31 5 36 -2 3 -6 9 -2 12 10 7 27
23 27 30 -1 l6 -22 25 23 c22 21 25 21 34 5 8 -15 12 -12 27 19 11 24 23 35
36 34 13 -1 18 -6 14 -17 -3 -8 7 0 22 17 26 30 43 41 43 28z m175 -25 c-5 -8
-10 -8 -20 0 -10 8 -13 6 -11 -7 1 -13 -5 -17 -19 -15 -19 2 -19 2 -2 -11 21
-17 22 -27 2 -27 -8 0 -15 4 -15 9 0 5 -12 12 -26 15 -14 4 -24 11 -22 17 2 6
8 9 13 7 6 -2 9 -6 8 -10 -5 -13 3 -9 42 22 24 19 42 27 48 21 5 -5 6 -14 2
-21z m495 -39 c-14 -27 -13 -36 4 -22 11 9 15 9 19 -1 3 -7 5 2 4 20 0 43 17
61 32 34 11 -21 -3 -72 -19 -72 -4 0 -11 -16 -14 -35 -9 -45 -23 -45 -32 0 -3
19 -12 51 -19 72 -9 27 -10 43 -3 57 10 18 11 18 25 -7 10 -20 11 -32 3 -46z
m-1035 41 c7 -18 -3 -31 -13 -17 -4 6 -16 11 -27 13 -17 2 -16 0 5 -12 14 -9
32 -15 41 -16 17 0 46 -50 29 -50 -6 0 -10 5 -10 11 0 5 -5 7 -11 4 -6 -4 -17
3 -26 14 -8 12 -23 21 -32 19 -19 -3 -24 7 -16 33 7 21 52 22 60 1z m940 -23
c4 -18 3 -35 -3 -41 -8 -8 -13 -2 -17 18 -4 16 -8 34 -10 41 -2 6 -1 14 2 17
10 10 21 -4 28 -35z m275 24 c0 -29 -17 -50 -30 -37 -9 9 -8 17 2 33 16 26 28
27 28 4z m90 10 c-1 -18 -28 -44 -35 -33 -4 6 -1 17 5 25 13 16 30 20 30 8z
m-1050 -10 c-1 -20 -28 -55 -34 -45 -8 13 10 52 24 52 6 0 10 -3 10 -7z m902
-5 c5 -15 -13 -68 -23 -68 -13 0 -16 34 -5 58 10 24 22 29 28 10z m186 -1 c15
6 15 4 4 -9 -12 -15 -52 -21 -52 -8 0 12 25 31 28 21 2 -5 11 -7 20 -4z
m-1212 -12 c10 -25 -7 -40 -23 -20 -7 11 -13 22 -13 27 0 14 30 9 36 -7z m773
-20 c12 -34 6 -65 -9 -48 -11 12 -22 83 -12 83 4 0 14 -16 21 -35z m-709 13
c0 -7 -5 -20 -10 -28 -9 -13 -11 -13 -19 -1 -5 8 -7 20 -4 28 6 17 33 17 33 1z
m1041 -27 c-12 -22 -31 -28 -31 -10 0 23 22 51 32 41 7 -7 6 -17 -1 -31z
m-237 3 c9 -22 7 -57 -3 -73 -6 -10 -12 -4 -21 23 -12 37 -8 66 9 66 5 0 12
-7 15 -16z m177 -40 c-9 -20 -15 -24 -23 -16 -9 9 -8 18 1 38 9 20 15 24 23
16 9 -9 8 -18 -1 -38z m-55 -22 c-3 -15 -3 -21 0 -14 8 17 34 15 34 -3 0 -8 5
-15 12 -15 6 0 9 3 5 6 -9 10 22 66 33 59 6 -4 6 -14 -1 -26 -6 -12 -8 -23 -6
-26 3 -2 8 5 12 16 7 23 25 29 25 9 0 -9 3 -10 8 -2 9 14 44 14 39 1 -5 -15
-76 -38 -128 -41 -26 -2 -50 -5 -55 -8 -39 -21 -53 -17 -34 12 9 13 11 13 21
0 8 -11 9 -7 4 17 -8 38 14 82 28 57 5 -8 6 -27 3 -42z m-139 -32 c3 -3 11 4
19 14 13 18 14 18 23 -5 12 -31 -3 -48 -28 -32 -14 8 -21 9 -30 0 -14 -14 -21
-6 -31 39 -6 26 -5 43 2 52 9 11 15 6 26 -25 9 -21 17 -40 19 -43z m-126 27
c1 -18 2 -19 6 -4 7 26 27 15 35 -19 7 -28 7 -28 4 4 -1 18 1 35 6 38 9 5 12
-3 22 -48 6 -26 4 -28 -24 -28 -21 0 -30 5 -31 18 -1 15 -2 15 -6 0 -2 -9 -13
-16 -23 -15 -14 1 -16 5 -9 19 5 10 6 30 3 44 -5 19 -4 25 5 20 6 -4 12 -17
12 -29z m-688 -54 c-6 -16 -18 -16 -44 -3 -11 6 -19 7 -19 1 0 -5 12 -12 26
-15 15 -4 24 -9 22 -11 -2 -3 -22 1 -44 7 -21 6 -33 13 -26 15 6 3 10 8 8 12
-3 4 15 8 38 8 33 0 43 -4 39 -14z m218 -33 c4 0 6 -6 3 -14 -4 -11 0 -13 15
-9 16 4 20 2 16 -10 -4 -10 4 -18 26 -26 37 -13 60 -15 42 -3 -7 4 -9 13 -4
20 6 10 14 10 36 2 30 -11 69 -4 60 11 -7 11 15 12 33 1 14 -9 6 -42 -10 -42
-6 0 -8 6 -5 14 4 10 0 12 -14 9 -10 -3 -16 -9 -13 -14 3 -5 -2 -6 -11 -3 -9
4 -15 3 -13 -2 2 -5 -1 -10 -7 -10 -5 -1 -9 2 -8 6 1 4 -7 6 -18 3 -11 -3 -16
-9 -10 -12 6 -4 7 -12 1 -21 -9 -13 -10 -13 -10 0 0 22 -82 50 -98 34 -9 -10
-8 -14 1 -17 7 -3 -9 -4 -35 -3 -38 1 -46 4 -45 18 1 10 9 18 20 18 10 0 16
-4 13 -9 -9 -13 22 -7 37 8 9 10 8 11 -7 5 -16 -6 -18 -4 -14 14 4 14 0 26
-10 33 -15 9 -15 10 1 5 10 -3 23 -6 28 -6z m-36 -21 c-14 -5 -16 -8 -5 -9 8
-1 2 -6 -13 -10 -33 -10 -54 -5 -54 14 0 8 15 13 46 13 31 0 39 -3 26 -8z
m525 -40 c0 -18 -35 -5 -38 14 -3 16 -1 17 17 7 12 -6 21 -15 21 -21z m60 2
c0 -3 -4 -12 -9 -19 -6 -10 -10 -10 -20 2 -15 18 -6 37 14 29 8 -3 15 -8 15
-12z m119 -23 c-8 -14 -14 -17 -22 -9 -7 7 -6 15 3 25 17 22 32 9 19 -16z
m-599 -3 c32 -12 33 -14 10 -16 -14 -1 -34 -2 -45 -1 -20 2 -20 2 0 -14 19
-16 19 -16 -5 -9 -14 4 -36 14 -50 22 -23 12 -23 13 -2 8 30 -9 70 4 51 16
-20 13 0 10 41 -6z m450 -16 c0 -24 -9 -24 -27 -1 -12 15 -13 14 -2 -8 7 -14
18 -29 25 -33 8 -4 14 -17 14 -28 0 -11 4 -18 9 -15 5 3 14 0 20 -8 9 -11 8
-18 -4 -30 -21 -20 -39 -21 -31 -1 6 18 -42 97 -55 90 -4 -3 -11 0 -15 6 -8
14 43 62 57 54 5 -4 9 -15 9 -26z m60 17 c0 -18 -16 -29 -30 -21 -13 8 -1 35
16 35 8 0 14 -6 14 -14z m32 -27 c-3 -11 -1 -12 9 -1 20 19 31 14 27 -10 -4
-27 -26 -34 -51 -16 -12 9 -16 20 -11 31 7 20 31 17 26 -4z m128 1 c-6 -11
-19 -24 -30 -30 -11 -6 -20 -18 -20 -28 0 -15 2 -15 11 -2 7 10 9 11 7 2 -2
-8 -7 -12 -12 -10 -5 2 -12 -7 -17 -19 -6 -17 -16 -23 -39 -23 -30 0 -30 0
-14 25 9 14 24 24 32 23 10 -2 17 5 19 17 1 11 0 14 -3 8 -3 -7 -12 -13 -19
-13 -10 0 -11 5 -2 25 13 27 27 33 27 13 0 -7 5 -5 11 5 5 9 14 17 19 17 5 0
7 -8 4 -17 -2 -10 1 -8 7 5 7 12 16 22 21 22 5 0 4 -9 -2 -20z m-186 -8 c2 -4
1 -14 -4 -22 -7 -11 -12 -12 -21 -3 -6 6 -8 16 -5 22 8 13 23 14 30 3z m35
-53 c-5 -10 -14 -19 -20 -19 -16 0 -22 29 -9 45 19 22 43 0 29 -26z m34 -9
c-6 -24 -19 -34 -33 -25 -6 4 -5 13 3 25 16 26 37 26 30 0z m-27 -44 c3 -8 12
-12 19 -10 10 4 12 -1 8 -15 -6 -25 -12 -26 -40 -6 -13 9 -20 22 -17 30 8 19
23 19 30 1z"/>
<path d="M630 905 c10 -12 10 -15 -4 -15 -9 0 -16 6 -16 13 0 9 -2 9 -8 -1 -5
-7 -17 -10 -28 -7 -15 5 -16 4 -4 -3 20 -13 72 -10 77 4 2 6 -4 14 -13 18 -14
5 -15 4 -4 -9z"/>
<path d="M643 835 c0 -13 26 -15 57 -3 8 4 22 9 30 11 8 3 0 6 -17 6 -18 1
-33 -4 -33 -9 0 -7 -6 -7 -18 -1 -14 7 -19 6 -19 -4z"/>
<path d="M740 817 c-11 -17 -20 -38 -20 -44 0 -7 -5 -13 -12 -13 -6 0 -8 -3
-5 -7 9 -9 48 27 41 38 -3 5 0 9 5 9 6 0 11 7 11 16 0 10 6 14 15 10 8 -3 15
-1 15 3 0 5 -7 11 -15 15 -10 4 -22 -5 -35 -27z"/>
<path d="M1956 1283 c-3 -7 -13 -13 -23 -13 -11 -1 -5 -7 15 -15 21 -9 40 -11
55 -6 20 8 20 9 -11 16 -18 4 -31 9 -28 12 5 5 93 -23 105 -33 6 -5 -20 -34
-31 -34 -7 0 -6 5 1 13 11 14 5 27 -11 27 -5 0 -6 -5 -2 -11 4 -8 0 -9 -15 -4
-13 4 -21 2 -21 -5 0 -6 -5 -8 -12 -4 -7 4 -8 3 -4 -5 4 -7 13 -10 19 -8 7 2
18 -2 25 -10 19 -19 40 -16 47 6 4 13 13 18 26 16 11 -2 17 0 14 6 -4 5 1 9
10 9 10 0 13 -5 9 -12 -4 -7 -3 -8 4 -4 7 4 12 9 12 11 0 8 -63 34 -71 29 -5
-3 -9 0 -9 6 0 6 -5 8 -11 4 -6 -3 -15 -1 -19 6 -10 17 -68 19 -74 3z"/>
<path d="M518 1163 c-10 -2 -18 -8 -18 -13 0 -5 -7 -6 -17 -3 -11 4 -14 3 -9
-5 11 -18 44 -14 55 6 6 9 11 14 11 9 0 -4 -5 -16 -12 -26 -11 -17 -15 -18
-51 -5 -48 17 -50 17 -41 3 4 -8 -1 -9 -16 -4 -17 5 -21 4 -15 -6 6 -9 3 -11
-10 -5 -21 8 -85 -11 -85 -25 0 -5 7 -9 16 -9 8 0 13 4 9 9 -3 6 16 3 42 -7
27 -9 41 -18 31 -20 -9 -2 -19 -9 -22 -17 -3 -10 0 -12 12 -8 28 10 42 25 35
36 -4 6 2 8 15 5 12 -4 20 -2 17 2 -3 5 1 10 7 13 8 3 3 9 -12 16 -24 11 -24
11 5 6 17 -3 38 -8 47 -11 13 -4 21 3 28 22 8 21 14 24 22 16 7 -7 19 -12 28
-11 10 0 7 4 -7 11 -13 6 -23 15 -23 20 0 8 -13 9 -42 1z m-60 -68 c4 -5 -1
-5 -10 -2 -9 3 -19 1 -21 -6 -3 -9 -13 -8 -37 4 l-34 16 47 -2 c26 -1 51 -6
55 -10z"/>
<path d="M275 1080 c4 -7 -2 -9 -19 -4 -17 4 -26 2 -26 -6 0 -6 -4 -9 -9 -5
-5 3 -12 1 -16 -4 -3 -6 -13 -7 -22 -4 -12 5 -14 3 -8 -8 7 -12 6 -12 -7 -1
-12 10 -22 10 -44 1 -16 -6 -40 -13 -53 -15 -35 -4 -36 -11 -2 -28 30 -16 31
-16 45 11 8 16 15 23 16 16 0 -8 9 -9 32 -2 41 11 41 11 33 -1 -3 -6 1 -7 9
-4 9 3 13 11 9 17 -4 6 4 7 23 2 46 -12 69 -11 66 3 -2 9 8 12 32 10 19 -2 35
2 35 7 0 6 -15 9 -34 7 -18 -1 -36 2 -40 8 -3 5 -11 10 -16 10 -6 0 -7 -5 -4
-10z"/>
<path d="M411 871 c-13 -23 4 -33 41 -24 19 4 20 3 8 -7 -12 -9 -7 -10 22 -5
21 3 47 1 58 -5 12 -6 26 -9 33 -7 7 2 -8 10 -32 18 -24 7 -38 15 -30 18 7 2
-7 10 -31 17 -58 17 -57 17 -69 -5z"/>
<path d="M1575 573 c-5 -5 -11 -16 -13 -27 -3 -15 1 -18 20 -12 13 3 27 6 31
6 5 0 6 4 3 9 -4 5 4 7 16 4 16 -4 20 -2 13 5 -14 15 -58 24 -70 15z"/>
</g>
</svg>
