<?xml version="1.0" standalone="no"?>
<!DOCTYPE svg PUBLIC "-//W3C//DTD SVG 20010904//EN"
 "http://www.w3.org/TR/2001/REC-SVG-20010904/DTD/svg10.dtd">
<svg version="1.0" xmlns="http://www.w3.org/2000/svg"
 width="50.000000pt" height="50.000000pt" viewBox="0 0 700.000000 601.000000"
 preserveAspectRatio="xMidYMid meet">

<g transform="translate(0.000000,601.000000) scale(0.100000,-0.100000)"
fill="#000000" stroke="none">
<path d="M3487 6003 c-4 -3 -7 -421 -7 -929 l0 -922 57 -7 c32 -4 75 -14 96
-22 33 -14 40 -14 51 -2 7 8 70 105 140 217 105 166 127 208 123 230 -11 50
-438 1427 -446 1435 -4 4 -10 4 -14 0z"/>
<path d="M3413 4002 c-124 -44 -193 -141 -193 -271 1 -104 57 -193 151 -240
136 -68 290 -23 367 107 24 42 27 57 27 137 0 105 -18 148 -85 209 -77 69
-175 91 -267 58z"/>
<path d="M2037 3134 c-279 -312 -507 -571 -507 -575 0 -5 5 -9 10 -9 10 0
1585 943 1602 959 5 4 -1 24 -11 45 -11 20 -25 59 -32 85 l-12 48 -186 6
c-102 4 -224 7 -271 7 l-85 0 -508 -566z"/>
<path d="M3855 3540 c-4 -11 -31 -47 -61 -79 l-55 -60 116 -223 c64 -123 120
-226 124 -231 6 -6 1462 -357 1483 -357 4 0 8 4 8 9 0 11 -15 20 -890 536
-371 219 -685 405 -697 412 -19 13 -22 12 -28 -7z"/>
<path d="M3387 3200 c-3 -74 -25 -765 -47 -1535 -23 -770 -43 -1414 -46 -1432
l-5 -32 -293 -3 c-278 -3 -295 -4 -316 -23 -33 -30 -42 -62 -29 -102 21 -66
-14 -63 838 -63 466 0 780 4 795 10 27 10 56 56 56 89 0 12 -13 35 -29 53
l-29 33 -295 3 -295 3 -6 92 c-3 51 -19 730 -36 1510 l-30 1419 -26 49 c-13
28 -30 52 -37 54 -7 2 -46 5 -88 7 l-76 3 -6 -135z"/>
</g>
</svg>
